M48
; DRILL file {KiCad 8.0.4-8.0.4-0~ubuntu20.04.1} date 2024-08-15T08:25:24-0500
; FORMAT={-:-/ absolute / inch / decimal}
; #@! TF.CreationDate,2024-08-15T08:25:24-05:00
; #@! TF.GenerationSoftware,Kicad,Pcbnew,8.0.4-8.0.4-0~ubuntu20.04.1
; #@! TF.FileFunction,Plated,1,2,PTH
FMAT,2
INCH
; #@! TA.AperFunction,Plated,PTH,ViaDrill
T1C0.0157
; #@! TA.AperFunction,Plated,PTH,ComponentDrill
T2C0.0402
%
G90
G05
T1
X5.8366Y-3.7106
X5.9941Y-3.8583
X6.0039Y-4.0551
X6.1417Y-3.8386
X6.1713Y-3.8681
X6.2842Y-4.0468
X6.2992Y-3.8583
X6.3681Y-3.8976
X6.378Y-3.7992
X6.4764Y-3.9764
X6.4961Y-4.1142
X6.7028Y-3.7894
T2
X5.8386Y-3.8071
X5.8386Y-3.9071
X5.8386Y-4.0071
X5.8386Y-4.1071
X6.6063Y-3.8071
X6.6063Y-3.9071
X6.6063Y-4.0071
X6.6063Y-4.1071
M30
