%TF.GenerationSoftware,KiCad,Pcbnew,8.0.4-8.0.4-0~ubuntu20.04.1*%
%TF.CreationDate,2024-08-15T08:25:23-05:00*%
%TF.ProjectId,STImu,5354496d-752e-46b6-9963-61645f706362,rev?*%
%TF.SameCoordinates,Original*%
%TF.FileFunction,Soldermask,Top*%
%TF.FilePolarity,Negative*%
%FSLAX46Y46*%
G04 Gerber Fmt 4.6, Leading zero omitted, Abs format (unit mm)*
G04 Created by KiCad (PCBNEW 8.0.4-8.0.4-0~ubuntu20.04.1) date 2024-08-15 08:25:23*
%MOMM*%
%LPD*%
G01*
G04 APERTURE LIST*
G04 Aperture macros list*
%AMRoundRect*
0 Rectangle with rounded corners*
0 $1 Rounding radius*
0 $2 $3 $4 $5 $6 $7 $8 $9 X,Y pos of 4 corners*
0 Add a 4 corners polygon primitive as box body*
4,1,4,$2,$3,$4,$5,$6,$7,$8,$9,$2,$3,0*
0 Add four circle primitives for the rounded corners*
1,1,$1+$1,$2,$3*
1,1,$1+$1,$4,$5*
1,1,$1+$1,$6,$7*
1,1,$1+$1,$8,$9*
0 Add four rect primitives between the rounded corners*
20,1,$1+$1,$2,$3,$4,$5,0*
20,1,$1+$1,$4,$5,$6,$7,0*
20,1,$1+$1,$6,$7,$8,$9,0*
20,1,$1+$1,$8,$9,$2,$3,0*%
G04 Aperture macros list end*
%ADD10RoundRect,0.218750X-0.256250X0.218750X-0.256250X-0.218750X0.256250X-0.218750X0.256250X0.218750X0*%
%ADD11C,1.100000*%
%ADD12R,2.030000X1.730000*%
%ADD13O,2.030000X1.730000*%
%ADD14C,1.000000*%
%ADD15RoundRect,0.200000X-0.200000X-0.275000X0.200000X-0.275000X0.200000X0.275000X-0.200000X0.275000X0*%
%ADD16RoundRect,0.218750X0.218750X0.256250X-0.218750X0.256250X-0.218750X-0.256250X0.218750X-0.256250X0*%
%ADD17RoundRect,0.225000X-0.250000X0.225000X-0.250000X-0.225000X0.250000X-0.225000X0.250000X0.225000X0*%
%ADD18RoundRect,0.200000X-0.275000X0.200000X-0.275000X-0.200000X0.275000X-0.200000X0.275000X0.200000X0*%
%ADD19RoundRect,0.087500X-0.225000X-0.087500X0.225000X-0.087500X0.225000X0.087500X-0.225000X0.087500X0*%
%ADD20RoundRect,0.087500X-0.087500X-0.225000X0.087500X-0.225000X0.087500X0.225000X-0.087500X0.225000X0*%
G04 APERTURE END LIST*
D10*
%TO.C,R4*%
X154000000Y-98212500D03*
X154000000Y-99787500D03*
%TD*%
D11*
%TO.C,J1*%
X169960000Y-101780000D03*
D12*
X167800000Y-96700000D03*
D13*
X167800000Y-99240000D03*
X167800000Y-101780000D03*
X167800000Y-104320000D03*
%TD*%
D10*
%TO.C,R1*%
X160000000Y-94712500D03*
X160000000Y-96287500D03*
%TD*%
D14*
%TO.C,TP1*%
X154500000Y-103000000D03*
%TD*%
%TO.C,TP2*%
X161500000Y-101500000D03*
%TD*%
D15*
%TO.C,R3*%
X168175000Y-94000000D03*
X169825000Y-94000000D03*
%TD*%
D16*
%TO.C,D1*%
X166287500Y-94000000D03*
X164712500Y-94000000D03*
%TD*%
D17*
%TO.C,C2*%
X161500000Y-103725000D03*
X161500000Y-105275000D03*
%TD*%
D18*
%TO.C,R2*%
X157000000Y-94675000D03*
X157000000Y-96325000D03*
%TD*%
D10*
%TO.C,R5*%
X154000000Y-94712500D03*
X154000000Y-96287500D03*
%TD*%
D17*
%TO.C,C1*%
X157000000Y-103725000D03*
X157000000Y-105275000D03*
%TD*%
D11*
%TO.C,J2*%
X150460000Y-101780000D03*
D12*
X148300000Y-96700000D03*
D13*
X148300000Y-99240000D03*
X148300000Y-101780000D03*
X148300000Y-104320000D03*
%TD*%
D19*
%TO.C,U1*%
X156837500Y-99750000D03*
X156837500Y-100250000D03*
X156837500Y-100750000D03*
X156837500Y-101250000D03*
D20*
X157500000Y-101412500D03*
X158000000Y-101412500D03*
X158500000Y-101412500D03*
D19*
X159162500Y-101250000D03*
X159162500Y-100750000D03*
X159162500Y-100250000D03*
X159162500Y-99750000D03*
D20*
X158500000Y-99587500D03*
X158000000Y-99587500D03*
X157500000Y-99587500D03*
%TD*%
M02*
