%TF.GenerationSoftware,KiCad,Pcbnew,8.0.4-8.0.4-0~ubuntu20.04.1*%
%TF.CreationDate,2024-08-15T08:25:23-05:00*%
%TF.ProjectId,STImu,5354496d-752e-46b6-9963-61645f706362,rev?*%
%TF.SameCoordinates,Original*%
%TF.FileFunction,Copper,L1,Top*%
%TF.FilePolarity,Positive*%
%FSLAX46Y46*%
G04 Gerber Fmt 4.6, Leading zero omitted, Abs format (unit mm)*
G04 Created by KiCad (PCBNEW 8.0.4-8.0.4-0~ubuntu20.04.1) date 2024-08-15 08:25:23*
%MOMM*%
%LPD*%
G01*
G04 APERTURE LIST*
G04 Aperture macros list*
%AMRoundRect*
0 Rectangle with rounded corners*
0 $1 Rounding radius*
0 $2 $3 $4 $5 $6 $7 $8 $9 X,Y pos of 4 corners*
0 Add a 4 corners polygon primitive as box body*
4,1,4,$2,$3,$4,$5,$6,$7,$8,$9,$2,$3,0*
0 Add four circle primitives for the rounded corners*
1,1,$1+$1,$2,$3*
1,1,$1+$1,$4,$5*
1,1,$1+$1,$6,$7*
1,1,$1+$1,$8,$9*
0 Add four rect primitives between the rounded corners*
20,1,$1+$1,$2,$3,$4,$5,0*
20,1,$1+$1,$4,$5,$6,$7,0*
20,1,$1+$1,$6,$7,$8,$9,0*
20,1,$1+$1,$8,$9,$2,$3,0*%
G04 Aperture macros list end*
%TA.AperFunction,SMDPad,CuDef*%
%ADD10RoundRect,0.218750X-0.256250X0.218750X-0.256250X-0.218750X0.256250X-0.218750X0.256250X0.218750X0*%
%TD*%
%TA.AperFunction,ComponentPad*%
%ADD11R,2.030000X1.730000*%
%TD*%
%TA.AperFunction,ComponentPad*%
%ADD12O,2.030000X1.730000*%
%TD*%
%TA.AperFunction,SMDPad,CuDef*%
%ADD13C,1.000000*%
%TD*%
%TA.AperFunction,SMDPad,CuDef*%
%ADD14RoundRect,0.200000X-0.200000X-0.275000X0.200000X-0.275000X0.200000X0.275000X-0.200000X0.275000X0*%
%TD*%
%TA.AperFunction,SMDPad,CuDef*%
%ADD15RoundRect,0.218750X0.218750X0.256250X-0.218750X0.256250X-0.218750X-0.256250X0.218750X-0.256250X0*%
%TD*%
%TA.AperFunction,SMDPad,CuDef*%
%ADD16RoundRect,0.225000X-0.250000X0.225000X-0.250000X-0.225000X0.250000X-0.225000X0.250000X0.225000X0*%
%TD*%
%TA.AperFunction,SMDPad,CuDef*%
%ADD17RoundRect,0.200000X-0.275000X0.200000X-0.275000X-0.200000X0.275000X-0.200000X0.275000X0.200000X0*%
%TD*%
%TA.AperFunction,SMDPad,CuDef*%
%ADD18RoundRect,0.087500X-0.225000X-0.087500X0.225000X-0.087500X0.225000X0.087500X-0.225000X0.087500X0*%
%TD*%
%TA.AperFunction,SMDPad,CuDef*%
%ADD19RoundRect,0.087500X-0.087500X-0.225000X0.087500X-0.225000X0.087500X0.225000X-0.087500X0.225000X0*%
%TD*%
%TA.AperFunction,ViaPad*%
%ADD20C,0.800000*%
%TD*%
%TA.AperFunction,Conductor*%
%ADD21C,0.508000*%
%TD*%
%TA.AperFunction,Conductor*%
%ADD22C,0.152400*%
%TD*%
%TA.AperFunction,Conductor*%
%ADD23C,0.254000*%
%TD*%
G04 APERTURE END LIST*
D10*
%TO.P,R4,1*%
%TO.N,Net-(U1-SDO{slash}SA0)*%
X154000000Y-98212500D03*
%TO.P,R4,2*%
%TO.N,GND*%
X154000000Y-99787500D03*
%TD*%
D11*
%TO.P,J1,1,Pin_1*%
%TO.N,+3V3*%
X167800000Y-96700000D03*
D12*
%TO.P,J1,2,Pin_2*%
%TO.N,/SDA*%
X167800000Y-99240000D03*
%TO.P,J1,3,Pin_3*%
%TO.N,/SCL*%
X167800000Y-101780000D03*
%TO.P,J1,4,Pin_4*%
%TO.N,GND*%
X167800000Y-104320000D03*
%TD*%
D10*
%TO.P,R1,1*%
%TO.N,+3V3*%
X160000000Y-94712500D03*
%TO.P,R1,2*%
%TO.N,/SCL*%
X160000000Y-96287500D03*
%TD*%
D13*
%TO.P,TP1,1,1*%
%TO.N,Net-(U1-INT1)*%
X154500000Y-103000000D03*
%TD*%
%TO.P,TP2,1,1*%
%TO.N,Net-(U1-INT2)*%
X161500000Y-101500000D03*
%TD*%
D14*
%TO.P,R3,1*%
%TO.N,Net-(D1-K)*%
X168175000Y-94000000D03*
%TO.P,R3,2*%
%TO.N,GND*%
X169825000Y-94000000D03*
%TD*%
D15*
%TO.P,D1,1,K*%
%TO.N,Net-(D1-K)*%
X166287500Y-94000000D03*
%TO.P,D1,2,A*%
%TO.N,+3V3*%
X164712500Y-94000000D03*
%TD*%
D16*
%TO.P,C2,1*%
%TO.N,+3V3*%
X161500000Y-103725000D03*
%TO.P,C2,2*%
%TO.N,GND*%
X161500000Y-105275000D03*
%TD*%
D17*
%TO.P,R2,1*%
%TO.N,+3V3*%
X157000000Y-94675000D03*
%TO.P,R2,2*%
%TO.N,/SDA*%
X157000000Y-96325000D03*
%TD*%
D10*
%TO.P,R5,1*%
%TO.N,+3V3*%
X154000000Y-94712500D03*
%TO.P,R5,2*%
%TO.N,Net-(U1-SDO{slash}SA0)*%
X154000000Y-96287500D03*
%TD*%
D16*
%TO.P,C1,1*%
%TO.N,+3V3*%
X157000000Y-103725000D03*
%TO.P,C1,2*%
%TO.N,GND*%
X157000000Y-105275000D03*
%TD*%
D11*
%TO.P,J2,1,Pin_1*%
%TO.N,+3V3*%
X148300000Y-96700000D03*
D12*
%TO.P,J2,2,Pin_2*%
%TO.N,GND*%
X148300000Y-99240000D03*
%TO.P,J2,3,Pin_3*%
%TO.N,/SDA*%
X148300000Y-101780000D03*
%TO.P,J2,4,Pin_4*%
%TO.N,/SCL*%
X148300000Y-104320000D03*
%TD*%
D18*
%TO.P,U1,1,SDO/SA0*%
%TO.N,Net-(U1-SDO{slash}SA0)*%
X156837500Y-99750000D03*
%TO.P,U1,2,SDX*%
%TO.N,GND*%
X156837500Y-100250000D03*
%TO.P,U1,3,SCX*%
X156837500Y-100750000D03*
%TO.P,U1,4,INT1*%
%TO.N,Net-(U1-INT1)*%
X156837500Y-101250000D03*
D19*
%TO.P,U1,5,VDDIO*%
%TO.N,+3V3*%
X157500000Y-101412500D03*
%TO.P,U1,6,GND*%
%TO.N,GND*%
X158000000Y-101412500D03*
%TO.P,U1,7,GND*%
X158500000Y-101412500D03*
D18*
%TO.P,U1,8,VDD*%
%TO.N,+3V3*%
X159162500Y-101250000D03*
%TO.P,U1,9,INT2*%
%TO.N,Net-(U1-INT2)*%
X159162500Y-100750000D03*
%TO.P,U1,10,OCS_Aux*%
%TO.N,unconnected-(U1-OCS_Aux-Pad10)*%
X159162500Y-100250000D03*
%TO.P,U1,11,SDO_Aux*%
%TO.N,unconnected-(U1-SDO_Aux-Pad11)*%
X159162500Y-99750000D03*
D19*
%TO.P,U1,12,CS*%
%TO.N,unconnected-(U1-CS-Pad12)*%
X158500000Y-99587500D03*
%TO.P,U1,13,SCL*%
%TO.N,/SCL*%
X158000000Y-99587500D03*
%TO.P,U1,14,SDA*%
%TO.N,/SDA*%
X157500000Y-99587500D03*
%TD*%
D20*
%TO.N,GND*%
X156750000Y-98250000D03*
X152250000Y-98000000D03*
X164500000Y-101000000D03*
X165000000Y-104500000D03*
X170250000Y-96250000D03*
X148250000Y-94250000D03*
X161750000Y-99000000D03*
X159618784Y-102787638D03*
X162000000Y-96500000D03*
X152500000Y-103000000D03*
%TO.N,/SCL*%
X160000000Y-98000000D03*
%TO.N,/SDA*%
X156000000Y-97500000D03*
%TD*%
D21*
%TO.N,+3V3*%
X164200000Y-96700000D02*
X163000000Y-95500000D01*
X162775000Y-103725000D02*
X163000000Y-103500000D01*
D22*
X157500000Y-102500000D02*
X157000000Y-103000000D01*
D21*
X150800000Y-96700000D02*
X152500000Y-95000000D01*
X157000000Y-94675000D02*
X159962500Y-94675000D01*
X153287500Y-94712500D02*
X154000000Y-94712500D01*
X153000000Y-95000000D02*
X153287500Y-94712500D01*
X162000000Y-95000000D02*
X161712500Y-94712500D01*
D22*
X160500000Y-102500000D02*
X160500000Y-103725000D01*
D21*
X159962500Y-94675000D02*
X160000000Y-94712500D01*
X152500000Y-95000000D02*
X153000000Y-95000000D01*
X162500000Y-95000000D02*
X162000000Y-95000000D01*
X165000000Y-96700000D02*
X164200000Y-96700000D01*
X164712500Y-94000000D02*
X164712500Y-96412500D01*
X161712500Y-94712500D02*
X160000000Y-94712500D01*
D22*
X160000000Y-101500000D02*
X160000000Y-102000000D01*
D21*
X164712500Y-96412500D02*
X165000000Y-96700000D01*
X154000000Y-94712500D02*
X156962500Y-94712500D01*
X164500000Y-94212500D02*
X164712500Y-94000000D01*
X162775000Y-103725000D02*
X161500000Y-103725000D01*
D22*
X157500000Y-101412500D02*
X157500000Y-102500000D01*
D21*
X167800000Y-96700000D02*
X165000000Y-96700000D01*
X163000000Y-95500000D02*
X162500000Y-95000000D01*
X161500000Y-103725000D02*
X160500000Y-103725000D01*
D22*
X160000000Y-102000000D02*
X160500000Y-102500000D01*
X159750000Y-101250000D02*
X160000000Y-101500000D01*
D21*
X163000000Y-103500000D02*
X163000000Y-95500000D01*
D22*
X159162500Y-101250000D02*
X159750000Y-101250000D01*
D21*
X160500000Y-103725000D02*
X157000000Y-103725000D01*
D22*
X157000000Y-103000000D02*
X157000000Y-103725000D01*
D21*
X156962500Y-94712500D02*
X157000000Y-94675000D01*
X148300000Y-96700000D02*
X150800000Y-96700000D01*
D22*
%TO.N,/SCL*%
X158000000Y-98287500D02*
X158893750Y-97393750D01*
X158893750Y-97393750D02*
X159500000Y-98000000D01*
X158893750Y-97393750D02*
X160000000Y-96287500D01*
X158000000Y-99587500D02*
X158000000Y-98287500D01*
X159500000Y-98000000D02*
X160000000Y-98000000D01*
%TO.N,/SDA*%
X157500000Y-99587500D02*
X157500000Y-96825000D01*
X157000000Y-96500000D02*
X156000000Y-97500000D01*
X157500000Y-96825000D02*
X157000000Y-96325000D01*
X157000000Y-96325000D02*
X157000000Y-96500000D01*
%TO.N,Net-(U1-INT1)*%
X155500000Y-101500000D02*
X155500000Y-102000000D01*
X156837500Y-101250000D02*
X155750000Y-101250000D01*
X155500000Y-102000000D02*
X154500000Y-103000000D01*
X155750000Y-101250000D02*
X155500000Y-101500000D01*
%TO.N,Net-(U1-INT2)*%
X159162500Y-100750000D02*
X160750000Y-100750000D01*
X160750000Y-100750000D02*
X161500000Y-101500000D01*
D23*
%TO.N,Net-(D1-K)*%
X166287500Y-94000000D02*
X168175000Y-94000000D01*
D22*
%TO.N,Net-(U1-SDO{slash}SA0)*%
X154000000Y-96287500D02*
X154000000Y-98212500D01*
X155212500Y-98212500D02*
X154000000Y-98212500D01*
X156837500Y-99750000D02*
X155587500Y-98500000D01*
X155587500Y-98500000D02*
X155500000Y-98500000D01*
X155500000Y-98500000D02*
X155212500Y-98212500D01*
%TD*%
%TA.AperFunction,Conductor*%
%TO.N,GND*%
G36*
X157182491Y-96944406D02*
G01*
X157218455Y-96993906D01*
X157223300Y-97024499D01*
X157223300Y-99103398D01*
X157204393Y-99161589D01*
X157194305Y-99173400D01*
X157170786Y-99196919D01*
X157127292Y-99295421D01*
X157125641Y-99301493D01*
X157092118Y-99352678D01*
X157034912Y-99374384D01*
X157030114Y-99374500D01*
X156894321Y-99374500D01*
X156836130Y-99355593D01*
X156824317Y-99345504D01*
X155757397Y-98278584D01*
X155694305Y-98242157D01*
X155694304Y-98242156D01*
X155694303Y-98242156D01*
X155636827Y-98226756D01*
X155592447Y-98201134D01*
X155556172Y-98164859D01*
X155528395Y-98110342D01*
X155537966Y-98049910D01*
X155581231Y-98006645D01*
X155641663Y-97997074D01*
X155686440Y-98016311D01*
X155697159Y-98024536D01*
X155697162Y-98024537D01*
X155697163Y-98024538D01*
X155843233Y-98085042D01*
X155843238Y-98085044D01*
X155960809Y-98100522D01*
X155999999Y-98105682D01*
X156000000Y-98105682D01*
X156000001Y-98105682D01*
X156031352Y-98101554D01*
X156156762Y-98085044D01*
X156302841Y-98024536D01*
X156428282Y-97928282D01*
X156524536Y-97802841D01*
X156585044Y-97656762D01*
X156605682Y-97500000D01*
X156587115Y-97358971D01*
X156598265Y-97298813D01*
X156615265Y-97276047D01*
X156936818Y-96954495D01*
X156991334Y-96926718D01*
X157006821Y-96925499D01*
X157124300Y-96925499D01*
X157182491Y-96944406D01*
G37*
%TD.AperFunction*%
%TA.AperFunction,Conductor*%
G36*
X170958691Y-92519407D02*
G01*
X170994655Y-92568907D01*
X170999500Y-92599500D01*
X170999500Y-105900500D01*
X170980593Y-105958691D01*
X170931093Y-105994655D01*
X170900500Y-105999500D01*
X162471108Y-105999500D01*
X162412917Y-105980593D01*
X162376953Y-105931093D01*
X162376953Y-105869907D01*
X162386848Y-105848526D01*
X162411546Y-105808485D01*
X162464856Y-105647603D01*
X162475000Y-105548323D01*
X162475000Y-105525001D01*
X162474999Y-105525000D01*
X160525002Y-105525000D01*
X160525001Y-105525001D01*
X160525001Y-105548322D01*
X160535142Y-105647597D01*
X160535145Y-105647609D01*
X160588453Y-105808485D01*
X160613152Y-105848526D01*
X160627609Y-105907979D01*
X160604360Y-105964575D01*
X160552284Y-105996697D01*
X160528892Y-105999500D01*
X157971108Y-105999500D01*
X157912917Y-105980593D01*
X157876953Y-105931093D01*
X157876953Y-105869907D01*
X157886848Y-105848526D01*
X157911546Y-105808485D01*
X157964856Y-105647603D01*
X157975000Y-105548323D01*
X157975000Y-105525001D01*
X157974999Y-105525000D01*
X156025002Y-105525000D01*
X156025001Y-105525001D01*
X156025001Y-105548322D01*
X156035142Y-105647597D01*
X156035145Y-105647609D01*
X156088453Y-105808485D01*
X156113152Y-105848526D01*
X156127609Y-105907979D01*
X156104360Y-105964575D01*
X156052284Y-105996697D01*
X156028892Y-105999500D01*
X144599500Y-105999500D01*
X144541309Y-105980593D01*
X144505345Y-105931093D01*
X144500500Y-105900500D01*
X144500500Y-104215054D01*
X147084500Y-104215054D01*
X147084500Y-104424945D01*
X147125446Y-104630792D01*
X147125448Y-104630798D01*
X147205766Y-104824702D01*
X147205767Y-104824703D01*
X147322372Y-104999216D01*
X147470784Y-105147628D01*
X147645297Y-105264233D01*
X147839205Y-105344553D01*
X148045057Y-105385500D01*
X148045058Y-105385500D01*
X148554942Y-105385500D01*
X148554943Y-105385500D01*
X148760795Y-105344553D01*
X148954703Y-105264233D01*
X149129216Y-105147628D01*
X149277628Y-104999216D01*
X149394233Y-104824703D01*
X149474553Y-104630795D01*
X149515500Y-104424943D01*
X149515500Y-104215057D01*
X149474553Y-104009205D01*
X149394233Y-103815297D01*
X149277628Y-103640784D01*
X149129216Y-103492372D01*
X149092636Y-103467930D01*
X148954702Y-103375766D01*
X148760798Y-103295448D01*
X148760792Y-103295446D01*
X148554945Y-103254500D01*
X148554943Y-103254500D01*
X148045057Y-103254500D01*
X148045054Y-103254500D01*
X147839207Y-103295446D01*
X147839201Y-103295448D01*
X147645297Y-103375766D01*
X147470787Y-103492369D01*
X147322369Y-103640787D01*
X147205766Y-103815297D01*
X147125448Y-104009201D01*
X147125446Y-104009207D01*
X147084500Y-104215054D01*
X144500500Y-104215054D01*
X144500500Y-98989999D01*
X146807580Y-98989999D01*
X146807581Y-98990000D01*
X147855440Y-98990000D01*
X147824755Y-99043147D01*
X147790000Y-99172857D01*
X147790000Y-99307143D01*
X147824755Y-99436853D01*
X147855440Y-99490000D01*
X146807580Y-99490000D01*
X146818609Y-99559633D01*
X146885005Y-99763978D01*
X146982545Y-99955413D01*
X147108835Y-100129236D01*
X147260763Y-100281164D01*
X147434586Y-100407454D01*
X147626023Y-100504995D01*
X147829118Y-100570984D01*
X147878618Y-100606948D01*
X147897526Y-100665139D01*
X147878619Y-100723329D01*
X147836412Y-100756603D01*
X147645297Y-100835766D01*
X147470787Y-100952369D01*
X147322369Y-101100787D01*
X147205766Y-101275297D01*
X147125448Y-101469201D01*
X147125446Y-101469207D01*
X147084500Y-101675054D01*
X147084500Y-101884945D01*
X147125446Y-102090792D01*
X147125448Y-102090798D01*
X147205766Y-102284702D01*
X147295678Y-102419266D01*
X147322372Y-102459216D01*
X147470784Y-102607628D01*
X147645297Y-102724233D01*
X147839205Y-102804553D01*
X148045057Y-102845500D01*
X148045058Y-102845500D01*
X148554942Y-102845500D01*
X148554943Y-102845500D01*
X148760795Y-102804553D01*
X148954703Y-102724233D01*
X149129216Y-102607628D01*
X149277628Y-102459216D01*
X149394233Y-102284703D01*
X149474553Y-102090795D01*
X149492998Y-101998065D01*
X149522893Y-101944683D01*
X149578458Y-101919067D01*
X149638468Y-101931004D01*
X149680001Y-101975933D01*
X149687192Y-101998063D01*
X149690261Y-102013492D01*
X149690263Y-102013498D01*
X149750603Y-102159174D01*
X149750609Y-102159185D01*
X149784815Y-102210377D01*
X149838211Y-102290289D01*
X149949711Y-102401789D01*
X150027876Y-102454017D01*
X150080814Y-102489390D01*
X150080825Y-102489396D01*
X150134638Y-102511685D01*
X150226503Y-102549737D01*
X150381158Y-102580500D01*
X150381159Y-102580500D01*
X150538841Y-102580500D01*
X150538842Y-102580500D01*
X150693497Y-102549737D01*
X150839179Y-102489394D01*
X150970289Y-102401789D01*
X151081789Y-102290289D01*
X151169394Y-102159179D01*
X151229737Y-102013497D01*
X151260500Y-101858842D01*
X151260500Y-101701158D01*
X151229737Y-101546503D01*
X151169394Y-101400821D01*
X151169393Y-101400819D01*
X151169390Y-101400814D01*
X151122827Y-101331129D01*
X151081789Y-101269711D01*
X150970289Y-101158211D01*
X150913728Y-101120418D01*
X150839185Y-101070609D01*
X150839174Y-101070603D01*
X150693497Y-101010263D01*
X150538844Y-100979500D01*
X150538842Y-100979500D01*
X150381158Y-100979500D01*
X150381155Y-100979500D01*
X150226503Y-101010263D01*
X150226501Y-101010263D01*
X150080825Y-101070603D01*
X150080814Y-101070609D01*
X149949711Y-101158211D01*
X149949707Y-101158214D01*
X149838214Y-101269707D01*
X149838211Y-101269711D01*
X149750609Y-101400814D01*
X149750603Y-101400825D01*
X149690263Y-101546501D01*
X149690262Y-101546505D01*
X149687192Y-101561937D01*
X149657292Y-101615320D01*
X149601726Y-101640932D01*
X149541717Y-101628992D01*
X149500187Y-101584060D01*
X149492999Y-101561937D01*
X149474553Y-101469205D01*
X149394233Y-101275297D01*
X149277628Y-101100784D01*
X149129216Y-100952372D01*
X149110064Y-100939575D01*
X148954702Y-100835766D01*
X148763587Y-100756603D01*
X148717061Y-100716866D01*
X148702778Y-100657371D01*
X148726193Y-100600843D01*
X148770881Y-100570984D01*
X148973977Y-100504995D01*
X149165413Y-100407454D01*
X149339236Y-100281164D01*
X149491164Y-100129236D01*
X149557813Y-100037501D01*
X153025001Y-100037501D01*
X153025001Y-100054150D01*
X153035055Y-100152574D01*
X153035058Y-100152586D01*
X153087907Y-100312075D01*
X153176112Y-100455077D01*
X153294922Y-100573887D01*
X153437924Y-100662092D01*
X153597419Y-100714943D01*
X153695849Y-100724999D01*
X153749999Y-100724998D01*
X153750000Y-100724998D01*
X153750000Y-100037501D01*
X154250000Y-100037501D01*
X154250000Y-100724998D01*
X154250001Y-100724999D01*
X154304150Y-100724999D01*
X154402574Y-100714944D01*
X154402586Y-100714941D01*
X154562075Y-100662092D01*
X154705077Y-100573887D01*
X154823887Y-100455077D01*
X154912092Y-100312075D01*
X154964943Y-100152580D01*
X154975000Y-100054151D01*
X154975000Y-100037501D01*
X154974999Y-100037500D01*
X154250001Y-100037500D01*
X154250000Y-100037501D01*
X153750000Y-100037501D01*
X153749999Y-100037500D01*
X153025002Y-100037500D01*
X153025001Y-100037501D01*
X149557813Y-100037501D01*
X149617454Y-99955413D01*
X149714994Y-99763978D01*
X149781390Y-99559633D01*
X149792419Y-99490000D01*
X148744560Y-99490000D01*
X148775245Y-99436853D01*
X148810000Y-99307143D01*
X148810000Y-99172857D01*
X148775245Y-99043147D01*
X148744560Y-98990000D01*
X149792419Y-98990000D01*
X149792419Y-98989999D01*
X149781390Y-98920366D01*
X149714994Y-98716021D01*
X149617454Y-98524586D01*
X149491164Y-98350763D01*
X149339236Y-98198835D01*
X149165413Y-98072545D01*
X148973976Y-97975004D01*
X148923658Y-97958655D01*
X148874157Y-97922691D01*
X148855250Y-97864500D01*
X148874157Y-97806309D01*
X148923657Y-97770345D01*
X148954250Y-97765500D01*
X149334747Y-97765500D01*
X149334748Y-97765500D01*
X149393231Y-97753867D01*
X149459552Y-97709552D01*
X149503867Y-97643231D01*
X149515500Y-97584748D01*
X149515500Y-97253500D01*
X149534407Y-97195309D01*
X149583907Y-97159345D01*
X149614500Y-97154500D01*
X150734085Y-97154500D01*
X150734101Y-97154501D01*
X150740164Y-97154501D01*
X150859836Y-97154501D01*
X150951002Y-97130072D01*
X150975431Y-97123527D01*
X151079070Y-97063691D01*
X151163691Y-96979070D01*
X151163692Y-96979067D01*
X152659264Y-95483496D01*
X152713781Y-95455719D01*
X152729268Y-95454500D01*
X152934085Y-95454500D01*
X152934101Y-95454501D01*
X152940164Y-95454501D01*
X153059836Y-95454501D01*
X153151002Y-95430072D01*
X153175431Y-95423527D01*
X153279070Y-95363691D01*
X153361399Y-95281361D01*
X153415913Y-95253585D01*
X153476346Y-95263156D01*
X153489593Y-95271275D01*
X153494247Y-95274657D01*
X153495901Y-95275500D01*
X153612580Y-95334951D01*
X153679130Y-95345491D01*
X153710751Y-95350500D01*
X153710754Y-95350500D01*
X154289249Y-95350500D01*
X154317803Y-95345976D01*
X154387420Y-95334951D01*
X154505751Y-95274658D01*
X154584414Y-95195994D01*
X154638929Y-95168219D01*
X154654416Y-95167000D01*
X156409601Y-95167000D01*
X156467792Y-95185907D01*
X156479598Y-95195990D01*
X156486658Y-95203050D01*
X156599696Y-95260646D01*
X156693481Y-95275500D01*
X157306518Y-95275499D01*
X157306520Y-95275499D01*
X157306521Y-95275498D01*
X157353411Y-95268072D01*
X157400299Y-95260647D01*
X157400299Y-95260646D01*
X157400304Y-95260646D01*
X157513342Y-95203050D01*
X157541945Y-95174447D01*
X157557897Y-95158496D01*
X157612414Y-95130719D01*
X157627900Y-95129500D01*
X159313561Y-95129500D01*
X159371752Y-95148407D01*
X159394669Y-95175240D01*
X159395762Y-95174447D01*
X159400340Y-95180748D01*
X159400342Y-95180751D01*
X159494249Y-95274658D01*
X159612580Y-95334951D01*
X159679130Y-95345491D01*
X159710751Y-95350500D01*
X159710754Y-95350500D01*
X160289249Y-95350500D01*
X160317803Y-95345976D01*
X160387420Y-95334951D01*
X160505751Y-95274658D01*
X160584414Y-95195994D01*
X160638929Y-95168219D01*
X160654416Y-95167000D01*
X161483232Y-95167000D01*
X161541423Y-95185907D01*
X161553236Y-95195996D01*
X161636307Y-95279067D01*
X161636309Y-95279070D01*
X161720930Y-95363691D01*
X161720932Y-95363692D01*
X161824566Y-95423525D01*
X161824569Y-95423527D01*
X161940164Y-95454500D01*
X162270732Y-95454500D01*
X162328923Y-95473407D01*
X162340736Y-95483496D01*
X162516504Y-95659264D01*
X162544281Y-95713781D01*
X162545500Y-95729268D01*
X162545500Y-103171500D01*
X162526593Y-103229691D01*
X162477093Y-103265655D01*
X162446500Y-103270500D01*
X162163255Y-103270500D01*
X162105064Y-103251593D01*
X162093257Y-103241509D01*
X162003220Y-103151472D01*
X162003217Y-103151470D01*
X161883132Y-103090283D01*
X161883127Y-103090281D01*
X161883126Y-103090281D01*
X161849913Y-103085020D01*
X161783490Y-103074500D01*
X161783488Y-103074500D01*
X161216512Y-103074500D01*
X161216510Y-103074500D01*
X161116874Y-103090281D01*
X161116867Y-103090283D01*
X160996782Y-103151470D01*
X160996780Y-103151471D01*
X160996780Y-103151472D01*
X160945701Y-103202550D01*
X160891187Y-103230326D01*
X160830755Y-103220755D01*
X160787490Y-103177490D01*
X160776700Y-103132545D01*
X160776700Y-102463573D01*
X160776700Y-102463572D01*
X160757844Y-102393198D01*
X160757844Y-102393197D01*
X160721415Y-102330102D01*
X160305696Y-101914383D01*
X160277919Y-101859866D01*
X160276700Y-101844379D01*
X160276700Y-101463573D01*
X160269553Y-101436899D01*
X160257844Y-101393198D01*
X160222008Y-101331129D01*
X160221416Y-101330103D01*
X160221414Y-101330100D01*
X160169898Y-101278584D01*
X160169898Y-101278585D01*
X160087017Y-101195704D01*
X160059240Y-101141187D01*
X160068811Y-101080755D01*
X160112076Y-101037490D01*
X160157021Y-101026700D01*
X160594379Y-101026700D01*
X160652570Y-101045607D01*
X160664383Y-101055696D01*
X160803958Y-101195271D01*
X160831735Y-101249788D01*
X160826521Y-101300380D01*
X160814860Y-101331128D01*
X160794355Y-101499998D01*
X160794355Y-101500001D01*
X160801118Y-101555695D01*
X160814860Y-101668872D01*
X160875182Y-101827930D01*
X160971817Y-101967929D01*
X161099148Y-102080734D01*
X161249775Y-102159790D01*
X161414944Y-102200500D01*
X161414947Y-102200500D01*
X161585053Y-102200500D01*
X161585056Y-102200500D01*
X161750225Y-102159790D01*
X161900852Y-102080734D01*
X162028183Y-101967929D01*
X162124818Y-101827930D01*
X162185140Y-101668872D01*
X162205645Y-101500000D01*
X162185140Y-101331128D01*
X162124818Y-101172070D01*
X162028183Y-101032071D01*
X162022120Y-101026700D01*
X161907324Y-100925000D01*
X161900852Y-100919266D01*
X161750225Y-100840210D01*
X161750224Y-100840209D01*
X161750223Y-100840209D01*
X161585058Y-100799500D01*
X161585056Y-100799500D01*
X161414944Y-100799500D01*
X161414938Y-100799500D01*
X161289345Y-100830456D01*
X161228321Y-100826024D01*
X161195650Y-100804337D01*
X160919897Y-100528584D01*
X160856805Y-100492157D01*
X160856804Y-100492156D01*
X160856803Y-100492156D01*
X160786428Y-100473300D01*
X160786426Y-100473300D01*
X159774500Y-100473300D01*
X159716309Y-100454393D01*
X159680345Y-100404893D01*
X159675500Y-100374300D01*
X159675499Y-100119499D01*
X159675499Y-100119496D01*
X159672707Y-100095420D01*
X159667415Y-100083436D01*
X159659304Y-100065066D01*
X159648230Y-100039988D01*
X159642022Y-99979119D01*
X159648227Y-99960018D01*
X159672707Y-99904580D01*
X159675500Y-99880505D01*
X159675499Y-99619496D01*
X159672707Y-99595420D01*
X159629215Y-99496921D01*
X159553079Y-99420785D01*
X159454580Y-99377293D01*
X159454577Y-99377292D01*
X159454576Y-99377292D01*
X159430511Y-99374500D01*
X158969886Y-99374500D01*
X158911695Y-99355593D01*
X158875731Y-99306093D01*
X158874358Y-99301488D01*
X158872707Y-99295419D01*
X158829215Y-99196922D01*
X158829215Y-99196921D01*
X158753079Y-99120785D01*
X158654580Y-99077293D01*
X158654577Y-99077292D01*
X158654576Y-99077292D01*
X158630511Y-99074500D01*
X158375700Y-99074500D01*
X158317509Y-99055593D01*
X158281545Y-99006093D01*
X158276700Y-98975500D01*
X158276700Y-98443121D01*
X158295607Y-98384930D01*
X158305696Y-98373117D01*
X158823746Y-97855067D01*
X158878263Y-97827290D01*
X158938695Y-97836861D01*
X158963754Y-97855067D01*
X159330102Y-98221415D01*
X159393197Y-98257844D01*
X159420830Y-98265248D01*
X159472144Y-98298570D01*
X159473750Y-98300607D01*
X159559507Y-98412369D01*
X159571718Y-98428282D01*
X159697159Y-98524536D01*
X159697160Y-98524536D01*
X159697161Y-98524537D01*
X159788619Y-98562420D01*
X159843238Y-98585044D01*
X159960809Y-98600522D01*
X159999999Y-98605682D01*
X160000000Y-98605682D01*
X160000001Y-98605682D01*
X160031352Y-98601554D01*
X160156762Y-98585044D01*
X160302841Y-98524536D01*
X160428282Y-98428282D01*
X160524536Y-98302841D01*
X160585044Y-98156762D01*
X160605682Y-98000000D01*
X160585044Y-97843238D01*
X160578438Y-97827290D01*
X160524537Y-97697161D01*
X160524537Y-97697160D01*
X160428286Y-97571723D01*
X160428285Y-97571722D01*
X160428282Y-97571718D01*
X160428277Y-97571714D01*
X160428276Y-97571713D01*
X160334816Y-97499999D01*
X160302841Y-97475464D01*
X160302840Y-97475463D01*
X160302838Y-97475462D01*
X160156766Y-97414957D01*
X160156758Y-97414955D01*
X160000001Y-97394318D01*
X159999999Y-97394318D01*
X159843241Y-97414955D01*
X159843233Y-97414957D01*
X159697163Y-97475461D01*
X159579099Y-97566054D01*
X159521423Y-97586477D01*
X159462757Y-97569099D01*
X159448828Y-97557515D01*
X159355067Y-97463754D01*
X159327290Y-97409237D01*
X159336861Y-97348805D01*
X159355067Y-97323746D01*
X159724317Y-96954496D01*
X159778834Y-96926719D01*
X159794321Y-96925500D01*
X160289249Y-96925500D01*
X160317803Y-96920976D01*
X160387420Y-96909951D01*
X160505751Y-96849658D01*
X160599658Y-96755751D01*
X160659951Y-96637420D01*
X160672764Y-96556518D01*
X160675500Y-96539248D01*
X160675500Y-96035751D01*
X160665147Y-95970387D01*
X160659951Y-95937580D01*
X160599658Y-95819249D01*
X160505751Y-95725342D01*
X160501631Y-95723243D01*
X160387423Y-95665050D01*
X160387420Y-95665049D01*
X160362876Y-95661161D01*
X160289249Y-95649500D01*
X160289246Y-95649500D01*
X159710754Y-95649500D01*
X159710751Y-95649500D01*
X159612580Y-95665049D01*
X159612576Y-95665050D01*
X159494250Y-95725341D01*
X159400341Y-95819250D01*
X159340050Y-95937576D01*
X159340049Y-95937580D01*
X159324500Y-96035751D01*
X159324500Y-96530678D01*
X159305593Y-96588869D01*
X159295504Y-96600682D01*
X158723852Y-97172335D01*
X157945704Y-97950483D01*
X157891187Y-97978260D01*
X157830755Y-97968689D01*
X157787490Y-97925424D01*
X157776700Y-97880479D01*
X157776700Y-96788574D01*
X157776699Y-96788570D01*
X157769940Y-96763342D01*
X157757844Y-96718197D01*
X157721415Y-96655102D01*
X157703928Y-96637615D01*
X157676151Y-96583098D01*
X157675238Y-96559827D01*
X157675495Y-96556545D01*
X157675500Y-96556519D01*
X157675499Y-96093482D01*
X157660646Y-95999696D01*
X157603050Y-95886658D01*
X157513342Y-95796950D01*
X157400304Y-95739354D01*
X157400305Y-95739354D01*
X157306522Y-95724500D01*
X156693479Y-95724500D01*
X156693476Y-95724501D01*
X156599700Y-95739352D01*
X156599695Y-95739354D01*
X156486659Y-95796949D01*
X156396949Y-95886659D01*
X156339354Y-95999695D01*
X156324500Y-96093477D01*
X156324500Y-96556520D01*
X156324501Y-96556523D01*
X156339352Y-96650299D01*
X156339353Y-96650304D01*
X156346875Y-96665065D01*
X156356447Y-96725497D01*
X156328670Y-96780014D01*
X156328670Y-96780015D01*
X156223950Y-96884735D01*
X156169433Y-96912512D01*
X156141024Y-96912884D01*
X156000001Y-96894318D01*
X155999999Y-96894318D01*
X155843241Y-96914955D01*
X155843233Y-96914957D01*
X155697161Y-96975462D01*
X155697160Y-96975462D01*
X155571723Y-97071713D01*
X155571713Y-97071723D01*
X155475462Y-97197160D01*
X155475462Y-97197161D01*
X155414957Y-97343233D01*
X155414955Y-97343241D01*
X155394318Y-97499999D01*
X155394318Y-97500000D01*
X155414955Y-97656758D01*
X155414957Y-97656766D01*
X155475462Y-97802838D01*
X155475462Y-97802839D01*
X155505836Y-97842423D01*
X155526260Y-97900099D01*
X155508882Y-97958765D01*
X155460340Y-97996012D01*
X155399176Y-97997613D01*
X155377793Y-97988426D01*
X155319305Y-97954657D01*
X155319304Y-97954656D01*
X155319303Y-97954656D01*
X155248928Y-97935800D01*
X155248926Y-97935800D01*
X154755669Y-97935800D01*
X154697478Y-97916893D01*
X154661514Y-97867393D01*
X154661513Y-97867389D01*
X154659951Y-97862584D01*
X154659951Y-97862580D01*
X154599658Y-97744249D01*
X154505751Y-97650342D01*
X154472140Y-97633216D01*
X154387423Y-97590050D01*
X154387420Y-97590049D01*
X154360210Y-97585739D01*
X154305694Y-97557959D01*
X154277918Y-97503442D01*
X154276700Y-97487958D01*
X154276700Y-97012041D01*
X154295607Y-96953850D01*
X154345107Y-96917886D01*
X154360211Y-96914260D01*
X154387420Y-96909951D01*
X154505751Y-96849658D01*
X154599658Y-96755751D01*
X154659951Y-96637420D01*
X154672764Y-96556518D01*
X154675500Y-96539248D01*
X154675500Y-96035751D01*
X154665147Y-95970387D01*
X154659951Y-95937580D01*
X154599658Y-95819249D01*
X154505751Y-95725342D01*
X154501631Y-95723243D01*
X154387423Y-95665050D01*
X154387420Y-95665049D01*
X154362876Y-95661161D01*
X154289249Y-95649500D01*
X154289246Y-95649500D01*
X153710754Y-95649500D01*
X153710751Y-95649500D01*
X153612580Y-95665049D01*
X153612576Y-95665050D01*
X153494250Y-95725341D01*
X153400341Y-95819250D01*
X153340050Y-95937576D01*
X153340049Y-95937580D01*
X153324500Y-96035751D01*
X153324500Y-96539248D01*
X153340049Y-96637419D01*
X153340050Y-96637423D01*
X153393393Y-96742113D01*
X153400342Y-96755751D01*
X153494249Y-96849658D01*
X153612580Y-96909951D01*
X153639787Y-96914260D01*
X153694304Y-96942038D01*
X153722081Y-96996554D01*
X153723300Y-97012041D01*
X153723300Y-97487958D01*
X153704393Y-97546149D01*
X153654893Y-97582113D01*
X153639790Y-97585739D01*
X153612579Y-97590049D01*
X153612576Y-97590050D01*
X153494250Y-97650341D01*
X153400341Y-97744250D01*
X153340050Y-97862576D01*
X153340049Y-97862580D01*
X153325466Y-97954657D01*
X153324500Y-97960754D01*
X153324500Y-98464246D01*
X153339790Y-98560787D01*
X153340049Y-98562419D01*
X153340050Y-98562423D01*
X153362092Y-98605682D01*
X153400342Y-98680751D01*
X153470647Y-98751056D01*
X153498423Y-98805571D01*
X153488852Y-98866003D01*
X153445587Y-98909268D01*
X153442478Y-98910784D01*
X153437927Y-98912905D01*
X153294922Y-99001112D01*
X153176112Y-99119922D01*
X153087907Y-99262924D01*
X153035056Y-99422419D01*
X153025000Y-99520848D01*
X153025000Y-99537499D01*
X153025001Y-99537500D01*
X154974998Y-99537500D01*
X154974999Y-99537499D01*
X154974999Y-99520849D01*
X154964944Y-99422425D01*
X154964941Y-99422413D01*
X154912092Y-99262924D01*
X154823887Y-99119922D01*
X154705077Y-99001112D01*
X154562078Y-98912909D01*
X154557524Y-98910786D01*
X154512773Y-98869061D01*
X154501094Y-98809000D01*
X154526948Y-98753546D01*
X154529326Y-98751082D01*
X154599658Y-98680751D01*
X154659951Y-98562420D01*
X154659951Y-98562413D01*
X154661513Y-98557611D01*
X154697475Y-98508109D01*
X154755665Y-98489200D01*
X155056879Y-98489200D01*
X155115070Y-98508107D01*
X155126883Y-98518196D01*
X155278585Y-98669898D01*
X155278584Y-98669898D01*
X155330100Y-98721414D01*
X155330103Y-98721416D01*
X155393194Y-98757842D01*
X155393195Y-98757842D01*
X155393198Y-98757844D01*
X155450673Y-98773244D01*
X155495053Y-98798866D01*
X156252965Y-99556778D01*
X156280742Y-99611295D01*
X156271171Y-99671727D01*
X156243229Y-99705324D01*
X156193492Y-99743488D01*
X156193488Y-99743492D01*
X156099317Y-99866217D01*
X156040121Y-100009131D01*
X156040120Y-100009131D01*
X156031449Y-100075000D01*
X156416492Y-100075000D01*
X156456480Y-100083436D01*
X156480240Y-100093927D01*
X156545420Y-100122707D01*
X156569495Y-100125500D01*
X157105504Y-100125499D01*
X157129580Y-100122707D01*
X157191385Y-100095417D01*
X157218520Y-100083436D01*
X157258509Y-100075000D01*
X157273111Y-100075000D01*
X157313095Y-100083434D01*
X157345420Y-100097707D01*
X157369495Y-100100500D01*
X157630504Y-100100499D01*
X157654580Y-100097707D01*
X157710012Y-100073230D01*
X157770879Y-100067022D01*
X157789986Y-100073230D01*
X157845420Y-100097707D01*
X157869495Y-100100500D01*
X158130504Y-100100499D01*
X158154580Y-100097707D01*
X158210012Y-100073230D01*
X158270879Y-100067022D01*
X158289986Y-100073230D01*
X158345420Y-100097707D01*
X158369495Y-100100500D01*
X158550499Y-100100499D01*
X158608690Y-100119406D01*
X158644654Y-100168906D01*
X158649500Y-100199498D01*
X158649500Y-100380500D01*
X158649501Y-100380503D01*
X158652293Y-100404581D01*
X158676768Y-100460013D01*
X158682976Y-100520883D01*
X158676768Y-100539986D01*
X158652294Y-100595416D01*
X158652292Y-100595423D01*
X158649500Y-100619488D01*
X158649500Y-100619494D01*
X158649500Y-100619495D01*
X158649501Y-100880504D01*
X158652293Y-100904580D01*
X158666565Y-100936903D01*
X158675000Y-100976888D01*
X158675000Y-101023109D01*
X158666565Y-101063096D01*
X158652293Y-101095420D01*
X158652292Y-101095420D01*
X158649500Y-101119491D01*
X158649500Y-101380500D01*
X158649501Y-101380505D01*
X158652292Y-101404580D01*
X158661090Y-101424503D01*
X158666564Y-101436901D01*
X158675000Y-101476889D01*
X158675000Y-102218549D01*
X158740863Y-102209879D01*
X158740872Y-102209877D01*
X158883782Y-102150682D01*
X159006507Y-102056511D01*
X159006511Y-102056507D01*
X159100682Y-101933782D01*
X159159877Y-101790872D01*
X159159879Y-101790864D01*
X159170318Y-101711577D01*
X159196659Y-101656352D01*
X159250430Y-101627157D01*
X159268467Y-101625499D01*
X159430504Y-101625499D01*
X159454580Y-101622707D01*
X159553079Y-101579215D01*
X159553081Y-101579212D01*
X159560648Y-101574030D01*
X159561967Y-101575956D01*
X159605003Y-101554030D01*
X159665435Y-101563601D01*
X159690494Y-101581807D01*
X159694304Y-101585617D01*
X159722081Y-101640134D01*
X159723300Y-101655621D01*
X159723300Y-101963572D01*
X159723300Y-102036428D01*
X159737867Y-102090795D01*
X159742157Y-102106805D01*
X159778584Y-102169897D01*
X160194304Y-102585617D01*
X160222081Y-102640134D01*
X160223300Y-102655621D01*
X160223300Y-103171500D01*
X160204393Y-103229691D01*
X160154893Y-103265655D01*
X160124300Y-103270500D01*
X157663255Y-103270500D01*
X157605064Y-103251593D01*
X157593257Y-103241509D01*
X157503220Y-103151472D01*
X157466074Y-103132545D01*
X157450150Y-103124431D01*
X157406886Y-103081166D01*
X157397315Y-103020734D01*
X157425091Y-102966220D01*
X157721415Y-102669898D01*
X157757844Y-102606803D01*
X157776700Y-102536428D01*
X157776700Y-102463572D01*
X157776700Y-102305763D01*
X157795607Y-102247572D01*
X157810426Y-102231330D01*
X157825000Y-102218549D01*
X157825000Y-101833508D01*
X157833436Y-101793520D01*
X157840528Y-101777455D01*
X157872707Y-101704580D01*
X157875500Y-101680505D01*
X157875499Y-101144496D01*
X157872707Y-101120420D01*
X157850712Y-101070606D01*
X157833436Y-101031480D01*
X157825000Y-100991491D01*
X157825000Y-100606450D01*
X157824999Y-100606449D01*
X158175000Y-100606449D01*
X158175000Y-102218548D01*
X158237077Y-102210377D01*
X158262920Y-102210377D01*
X158324999Y-102218549D01*
X158325000Y-102218549D01*
X158325000Y-100606450D01*
X158324999Y-100606449D01*
X158262921Y-100614622D01*
X158237078Y-100614622D01*
X158175000Y-100606449D01*
X157824999Y-100606449D01*
X157752699Y-100615968D01*
X157752436Y-100613973D01*
X157700509Y-100611241D01*
X157652968Y-100572725D01*
X157637854Y-100531740D01*
X157635377Y-100512916D01*
X157635378Y-100487078D01*
X157643551Y-100425000D01*
X156031450Y-100425000D01*
X156039622Y-100487077D01*
X156039622Y-100512921D01*
X156031448Y-100574999D01*
X156031449Y-100575000D01*
X156913500Y-100575000D01*
X156971691Y-100593907D01*
X157007655Y-100643407D01*
X157012500Y-100674000D01*
X157012500Y-100775500D01*
X156993593Y-100833691D01*
X156944093Y-100869655D01*
X156913500Y-100874500D01*
X156569499Y-100874500D01*
X156569496Y-100874501D01*
X156545418Y-100877293D01*
X156456480Y-100916564D01*
X156416491Y-100925000D01*
X156031450Y-100925000D01*
X156018668Y-100939575D01*
X155966085Y-100970859D01*
X155944236Y-100973300D01*
X155713572Y-100973300D01*
X155651505Y-100989930D01*
X155643194Y-100992157D01*
X155591644Y-101021921D01*
X155580101Y-101028585D01*
X155278584Y-101330102D01*
X155242156Y-101393196D01*
X155242156Y-101393197D01*
X155242156Y-101393198D01*
X155230447Y-101436899D01*
X155223300Y-101463572D01*
X155223300Y-101844379D01*
X155204393Y-101902570D01*
X155194303Y-101914383D01*
X154804348Y-102304337D01*
X154749832Y-102332114D01*
X154710653Y-102330456D01*
X154585059Y-102299500D01*
X154585056Y-102299500D01*
X154414944Y-102299500D01*
X154414941Y-102299500D01*
X154249776Y-102340209D01*
X154099146Y-102419267D01*
X153971818Y-102532069D01*
X153971816Y-102532072D01*
X153920233Y-102606803D01*
X153875182Y-102672070D01*
X153814860Y-102831128D01*
X153794355Y-103000000D01*
X153814860Y-103168872D01*
X153875182Y-103327930D01*
X153971817Y-103467929D01*
X154099148Y-103580734D01*
X154249775Y-103659790D01*
X154414944Y-103700500D01*
X154414947Y-103700500D01*
X154585053Y-103700500D01*
X154585056Y-103700500D01*
X154750225Y-103659790D01*
X154900852Y-103580734D01*
X155028183Y-103467929D01*
X155124818Y-103327930D01*
X155185140Y-103168872D01*
X155205645Y-103000000D01*
X155185140Y-102831128D01*
X155173478Y-102800380D01*
X155170522Y-102739267D01*
X155196042Y-102695270D01*
X155721414Y-102169899D01*
X155721415Y-102169898D01*
X155757844Y-102106803D01*
X155776700Y-102036428D01*
X155776700Y-101963572D01*
X155776700Y-101655621D01*
X155795607Y-101597430D01*
X155805696Y-101585617D01*
X155835617Y-101555696D01*
X155890134Y-101527919D01*
X155905621Y-101526700D01*
X156353398Y-101526700D01*
X156411589Y-101545607D01*
X156423400Y-101555695D01*
X156441736Y-101574030D01*
X156446921Y-101579215D01*
X156545420Y-101622707D01*
X156569495Y-101625500D01*
X157030113Y-101625499D01*
X157088304Y-101644406D01*
X157124268Y-101693906D01*
X157125640Y-101698506D01*
X157127292Y-101704580D01*
X157165391Y-101790864D01*
X157170785Y-101803079D01*
X157194305Y-101826599D01*
X157222081Y-101881114D01*
X157223300Y-101896601D01*
X157223300Y-102344379D01*
X157204393Y-102402570D01*
X157194304Y-102414383D01*
X156778584Y-102830102D01*
X156742156Y-102893196D01*
X156742156Y-102893197D01*
X156742156Y-102893198D01*
X156726119Y-102953051D01*
X156723300Y-102963572D01*
X156723300Y-102988871D01*
X156704393Y-103047062D01*
X156654893Y-103083026D01*
X156639790Y-103086651D01*
X156616874Y-103090281D01*
X156616867Y-103090283D01*
X156496782Y-103151470D01*
X156401470Y-103246782D01*
X156340283Y-103366867D01*
X156340281Y-103366874D01*
X156324500Y-103466510D01*
X156324500Y-103983489D01*
X156340281Y-104083125D01*
X156340283Y-104083132D01*
X156401470Y-104203217D01*
X156401472Y-104203220D01*
X156442783Y-104244531D01*
X156470559Y-104299046D01*
X156460988Y-104359478D01*
X156424751Y-104398793D01*
X156297270Y-104477425D01*
X156177425Y-104597270D01*
X156088454Y-104741512D01*
X156035143Y-104902396D01*
X156025000Y-105001676D01*
X156025000Y-105024999D01*
X156025001Y-105025000D01*
X157974998Y-105025000D01*
X157974999Y-105024999D01*
X157974999Y-105001677D01*
X157964857Y-104902402D01*
X157964854Y-104902390D01*
X157911545Y-104741512D01*
X157822574Y-104597270D01*
X157702730Y-104477426D01*
X157575248Y-104398793D01*
X157535647Y-104352152D01*
X157531024Y-104291141D01*
X157557215Y-104244532D01*
X157593254Y-104208493D01*
X157647769Y-104180719D01*
X157663255Y-104179500D01*
X160440164Y-104179500D01*
X160836745Y-104179500D01*
X160894936Y-104198407D01*
X160906742Y-104208490D01*
X160942783Y-104244531D01*
X160970559Y-104299046D01*
X160960988Y-104359478D01*
X160924751Y-104398793D01*
X160797270Y-104477425D01*
X160677425Y-104597270D01*
X160588454Y-104741512D01*
X160535143Y-104902396D01*
X160525000Y-105001676D01*
X160525000Y-105024999D01*
X160525001Y-105025000D01*
X162474998Y-105025000D01*
X162474999Y-105024999D01*
X162474999Y-105001677D01*
X162464857Y-104902402D01*
X162464854Y-104902390D01*
X162411545Y-104741512D01*
X162322574Y-104597270D01*
X162202730Y-104477426D01*
X162075248Y-104398793D01*
X162035647Y-104352152D01*
X162031024Y-104291141D01*
X162057215Y-104244532D01*
X162093254Y-104208493D01*
X162147769Y-104180719D01*
X162163255Y-104179500D01*
X162709085Y-104179500D01*
X162709101Y-104179501D01*
X162715164Y-104179501D01*
X162834836Y-104179501D01*
X162926002Y-104155072D01*
X162950431Y-104148527D01*
X163054070Y-104088691D01*
X163072762Y-104069999D01*
X166307580Y-104069999D01*
X166307581Y-104070000D01*
X167355440Y-104070000D01*
X167324755Y-104123147D01*
X167290000Y-104252857D01*
X167290000Y-104387143D01*
X167324755Y-104516853D01*
X167355440Y-104570000D01*
X166307580Y-104570000D01*
X166318609Y-104639633D01*
X166385005Y-104843978D01*
X166482545Y-105035413D01*
X166608835Y-105209236D01*
X166760763Y-105361164D01*
X166934586Y-105487454D01*
X167126021Y-105584994D01*
X167330366Y-105651390D01*
X167542569Y-105685000D01*
X167549999Y-105685000D01*
X167550000Y-105684999D01*
X167550000Y-104764560D01*
X167603147Y-104795245D01*
X167732857Y-104830000D01*
X167867143Y-104830000D01*
X167996853Y-104795245D01*
X168050000Y-104764560D01*
X168050000Y-105684999D01*
X168050001Y-105685000D01*
X168057431Y-105685000D01*
X168269633Y-105651390D01*
X168473978Y-105584994D01*
X168665413Y-105487454D01*
X168839236Y-105361164D01*
X168991164Y-105209236D01*
X169117454Y-105035413D01*
X169214994Y-104843978D01*
X169281390Y-104639633D01*
X169292419Y-104570000D01*
X168244560Y-104570000D01*
X168275245Y-104516853D01*
X168310000Y-104387143D01*
X168310000Y-104252857D01*
X168275245Y-104123147D01*
X168244560Y-104070000D01*
X169292419Y-104070000D01*
X169292419Y-104069999D01*
X169281390Y-104000366D01*
X169214994Y-103796021D01*
X169117454Y-103604586D01*
X168991164Y-103430763D01*
X168839236Y-103278835D01*
X168665413Y-103152545D01*
X168473978Y-103055005D01*
X168270880Y-102989015D01*
X168221380Y-102953051D01*
X168202473Y-102894860D01*
X168221380Y-102836669D01*
X168263585Y-102803397D01*
X168454703Y-102724233D01*
X168629216Y-102607628D01*
X168777628Y-102459216D01*
X168894233Y-102284703D01*
X168974553Y-102090795D01*
X168992998Y-101998065D01*
X169022893Y-101944683D01*
X169078458Y-101919067D01*
X169138468Y-101931004D01*
X169180001Y-101975933D01*
X169187192Y-101998063D01*
X169190261Y-102013492D01*
X169190263Y-102013498D01*
X169250603Y-102159174D01*
X169250609Y-102159185D01*
X169284815Y-102210377D01*
X169338211Y-102290289D01*
X169449711Y-102401789D01*
X169527876Y-102454017D01*
X169580814Y-102489390D01*
X169580825Y-102489396D01*
X169634638Y-102511685D01*
X169726503Y-102549737D01*
X169881158Y-102580500D01*
X169881159Y-102580500D01*
X170038841Y-102580500D01*
X170038842Y-102580500D01*
X170193497Y-102549737D01*
X170339179Y-102489394D01*
X170470289Y-102401789D01*
X170581789Y-102290289D01*
X170669394Y-102159179D01*
X170729737Y-102013497D01*
X170760500Y-101858842D01*
X170760500Y-101701158D01*
X170729737Y-101546503D01*
X170669394Y-101400821D01*
X170669393Y-101400819D01*
X170669390Y-101400814D01*
X170622827Y-101331129D01*
X170581789Y-101269711D01*
X170470289Y-101158211D01*
X170413728Y-101120418D01*
X170339185Y-101070609D01*
X170339174Y-101070603D01*
X170193497Y-101010263D01*
X170038844Y-100979500D01*
X170038842Y-100979500D01*
X169881158Y-100979500D01*
X169881155Y-100979500D01*
X169726503Y-101010263D01*
X169726501Y-101010263D01*
X169580825Y-101070603D01*
X169580814Y-101070609D01*
X169449711Y-101158211D01*
X169449707Y-101158214D01*
X169338214Y-101269707D01*
X169338211Y-101269711D01*
X169250609Y-101400814D01*
X169250603Y-101400825D01*
X169190263Y-101546501D01*
X169190262Y-101546505D01*
X169187192Y-101561937D01*
X169157292Y-101615320D01*
X169101726Y-101640932D01*
X169041717Y-101628992D01*
X169000187Y-101584060D01*
X168992999Y-101561937D01*
X168974553Y-101469205D01*
X168894233Y-101275297D01*
X168777628Y-101100784D01*
X168629216Y-100952372D01*
X168610064Y-100939575D01*
X168454702Y-100835766D01*
X168260798Y-100755448D01*
X168260792Y-100755446D01*
X168054945Y-100714500D01*
X168054943Y-100714500D01*
X167545057Y-100714500D01*
X167545054Y-100714500D01*
X167339207Y-100755446D01*
X167339201Y-100755448D01*
X167145297Y-100835766D01*
X166970787Y-100952369D01*
X166822369Y-101100787D01*
X166705766Y-101275297D01*
X166625448Y-101469201D01*
X166625446Y-101469207D01*
X166584500Y-101675054D01*
X166584500Y-101884945D01*
X166625446Y-102090792D01*
X166625448Y-102090798D01*
X166705766Y-102284702D01*
X166795678Y-102419266D01*
X166822372Y-102459216D01*
X166970784Y-102607628D01*
X166970787Y-102607630D01*
X167145297Y-102724233D01*
X167336412Y-102803396D01*
X167382937Y-102843133D01*
X167397221Y-102902628D01*
X167373806Y-102959156D01*
X167329119Y-102989015D01*
X167126021Y-103055005D01*
X166934586Y-103152545D01*
X166760763Y-103278835D01*
X166608835Y-103430763D01*
X166482545Y-103604586D01*
X166385005Y-103796021D01*
X166318609Y-104000366D01*
X166307580Y-104069999D01*
X163072762Y-104069999D01*
X163138691Y-104004070D01*
X163138692Y-104004067D01*
X163279067Y-103863692D01*
X163279070Y-103863691D01*
X163363691Y-103779070D01*
X163423527Y-103675431D01*
X163431399Y-103646053D01*
X163454501Y-103559836D01*
X163454501Y-103440164D01*
X163454501Y-103434102D01*
X163454500Y-103434084D01*
X163454500Y-99135054D01*
X166584500Y-99135054D01*
X166584500Y-99344945D01*
X166625446Y-99550792D01*
X166625448Y-99550798D01*
X166705766Y-99744702D01*
X166822369Y-99919212D01*
X166822372Y-99919216D01*
X166970784Y-100067628D01*
X167145297Y-100184233D01*
X167339205Y-100264553D01*
X167545057Y-100305500D01*
X167545058Y-100305500D01*
X168054942Y-100305500D01*
X168054943Y-100305500D01*
X168260795Y-100264553D01*
X168454703Y-100184233D01*
X168629216Y-100067628D01*
X168777628Y-99919216D01*
X168894233Y-99744703D01*
X168974553Y-99550795D01*
X169015500Y-99344943D01*
X169015500Y-99135057D01*
X168974553Y-98929205D01*
X168894233Y-98735297D01*
X168777628Y-98560784D01*
X168629216Y-98412372D01*
X168629212Y-98412369D01*
X168454702Y-98295766D01*
X168260798Y-98215448D01*
X168260792Y-98215446D01*
X168054945Y-98174500D01*
X168054943Y-98174500D01*
X167545057Y-98174500D01*
X167545054Y-98174500D01*
X167339207Y-98215446D01*
X167339201Y-98215448D01*
X167145297Y-98295766D01*
X166970787Y-98412369D01*
X166822369Y-98560787D01*
X166705766Y-98735297D01*
X166625448Y-98929201D01*
X166625446Y-98929207D01*
X166584500Y-99135054D01*
X163454500Y-99135054D01*
X163454500Y-96836268D01*
X163473407Y-96778077D01*
X163522907Y-96742113D01*
X163584093Y-96742113D01*
X163623504Y-96766264D01*
X163836307Y-96979067D01*
X163836309Y-96979070D01*
X163920930Y-97063691D01*
X163920932Y-97063692D01*
X164024566Y-97123525D01*
X164024569Y-97123527D01*
X164140164Y-97154500D01*
X164940164Y-97154500D01*
X166485500Y-97154500D01*
X166543691Y-97173407D01*
X166579655Y-97222907D01*
X166584500Y-97253500D01*
X166584500Y-97584746D01*
X166584501Y-97584758D01*
X166596132Y-97643227D01*
X166596134Y-97643233D01*
X166632168Y-97697161D01*
X166640448Y-97709552D01*
X166706769Y-97753867D01*
X166751231Y-97762711D01*
X166765241Y-97765498D01*
X166765246Y-97765498D01*
X166765252Y-97765500D01*
X166765253Y-97765500D01*
X168834747Y-97765500D01*
X168834748Y-97765500D01*
X168893231Y-97753867D01*
X168959552Y-97709552D01*
X169003867Y-97643231D01*
X169015500Y-97584748D01*
X169015500Y-95815252D01*
X169003867Y-95756769D01*
X168959552Y-95690448D01*
X168959548Y-95690445D01*
X168893233Y-95646134D01*
X168893231Y-95646133D01*
X168893228Y-95646132D01*
X168893227Y-95646132D01*
X168834758Y-95634501D01*
X168834748Y-95634500D01*
X166765252Y-95634500D01*
X166765251Y-95634500D01*
X166765241Y-95634501D01*
X166706772Y-95646132D01*
X166706766Y-95646134D01*
X166640451Y-95690445D01*
X166640445Y-95690451D01*
X166596134Y-95756766D01*
X166596132Y-95756772D01*
X166584501Y-95815241D01*
X166584500Y-95815253D01*
X166584500Y-96146500D01*
X166565593Y-96204691D01*
X166516093Y-96240655D01*
X166485500Y-96245500D01*
X165266000Y-96245500D01*
X165207809Y-96226593D01*
X165171845Y-96177093D01*
X165167000Y-96146500D01*
X165167000Y-94654416D01*
X165185907Y-94596225D01*
X165195990Y-94584418D01*
X165274658Y-94505751D01*
X165334951Y-94387420D01*
X165350500Y-94289246D01*
X165350500Y-93710754D01*
X165350500Y-93710751D01*
X165649500Y-93710751D01*
X165649500Y-94289248D01*
X165665049Y-94387419D01*
X165665050Y-94387423D01*
X165688490Y-94433426D01*
X165725342Y-94505751D01*
X165819249Y-94599658D01*
X165937580Y-94659951D01*
X166004130Y-94670491D01*
X166035751Y-94675500D01*
X166035754Y-94675500D01*
X166539249Y-94675500D01*
X166567803Y-94670976D01*
X166637420Y-94659951D01*
X166755751Y-94599658D01*
X166849658Y-94505751D01*
X166909692Y-94387929D01*
X166912940Y-94381554D01*
X166956204Y-94338290D01*
X167001149Y-94327500D01*
X167493770Y-94327500D01*
X167551961Y-94346407D01*
X167587923Y-94395902D01*
X167589353Y-94400303D01*
X167635858Y-94491572D01*
X167646950Y-94513342D01*
X167736658Y-94603050D01*
X167849696Y-94660646D01*
X167943481Y-94675500D01*
X168406518Y-94675499D01*
X168406520Y-94675499D01*
X168406521Y-94675498D01*
X168453411Y-94668072D01*
X168500299Y-94660647D01*
X168500299Y-94660646D01*
X168500304Y-94660646D01*
X168613342Y-94603050D01*
X168703050Y-94513342D01*
X168755870Y-94409676D01*
X168799134Y-94366413D01*
X168859566Y-94356842D01*
X168914083Y-94384620D01*
X168938596Y-94425170D01*
X168981979Y-94564392D01*
X168981982Y-94564400D01*
X169069924Y-94709872D01*
X169190127Y-94830075D01*
X169335599Y-94918017D01*
X169335607Y-94918020D01*
X169497889Y-94968589D01*
X169497895Y-94968591D01*
X169568425Y-94974998D01*
X169575000Y-94974998D01*
X169575000Y-94250001D01*
X170075000Y-94250001D01*
X170075000Y-94974998D01*
X170075001Y-94974999D01*
X170081566Y-94974999D01*
X170081582Y-94974998D01*
X170152103Y-94968591D01*
X170152109Y-94968589D01*
X170314392Y-94918020D01*
X170314400Y-94918017D01*
X170459872Y-94830075D01*
X170580075Y-94709872D01*
X170668017Y-94564400D01*
X170668020Y-94564392D01*
X170718589Y-94402110D01*
X170718591Y-94402104D01*
X170724999Y-94331581D01*
X170725000Y-94331568D01*
X170725000Y-94250001D01*
X170724999Y-94250000D01*
X170075001Y-94250000D01*
X170075000Y-94250001D01*
X169575000Y-94250001D01*
X169575000Y-93025001D01*
X170075000Y-93025001D01*
X170075000Y-93749999D01*
X170075001Y-93750000D01*
X170724998Y-93750000D01*
X170724999Y-93749999D01*
X170724999Y-93668433D01*
X170724998Y-93668417D01*
X170718591Y-93597896D01*
X170718589Y-93597890D01*
X170668020Y-93435607D01*
X170668017Y-93435599D01*
X170580075Y-93290127D01*
X170459872Y-93169924D01*
X170314400Y-93081982D01*
X170314392Y-93081979D01*
X170152110Y-93031410D01*
X170152104Y-93031408D01*
X170081581Y-93025000D01*
X170075001Y-93025000D01*
X170075000Y-93025001D01*
X169575000Y-93025001D01*
X169574998Y-93024999D01*
X169568425Y-93025000D01*
X169497896Y-93031408D01*
X169497890Y-93031410D01*
X169335607Y-93081979D01*
X169335599Y-93081982D01*
X169190127Y-93169924D01*
X169069924Y-93290127D01*
X168981982Y-93435599D01*
X168981979Y-93435607D01*
X168938596Y-93574829D01*
X168903233Y-93624760D01*
X168845275Y-93644369D01*
X168786860Y-93626166D01*
X168755870Y-93590322D01*
X168706918Y-93494250D01*
X168703050Y-93486658D01*
X168613342Y-93396950D01*
X168500304Y-93339354D01*
X168500305Y-93339354D01*
X168406522Y-93324500D01*
X167943479Y-93324500D01*
X167943476Y-93324501D01*
X167849700Y-93339352D01*
X167849695Y-93339354D01*
X167736659Y-93396949D01*
X167646949Y-93486659D01*
X167589353Y-93599696D01*
X167587926Y-93604090D01*
X167551964Y-93653591D01*
X167493773Y-93672500D01*
X167001149Y-93672500D01*
X166942958Y-93653593D01*
X166912940Y-93618446D01*
X166890716Y-93574829D01*
X166849658Y-93494249D01*
X166755751Y-93400342D01*
X166749092Y-93396949D01*
X166637423Y-93340050D01*
X166637420Y-93340049D01*
X166612876Y-93336161D01*
X166539249Y-93324500D01*
X166539246Y-93324500D01*
X166035754Y-93324500D01*
X166035751Y-93324500D01*
X165937580Y-93340049D01*
X165937576Y-93340050D01*
X165819250Y-93400341D01*
X165725341Y-93494250D01*
X165665050Y-93612576D01*
X165665049Y-93612580D01*
X165649500Y-93710751D01*
X165350500Y-93710751D01*
X165347764Y-93693482D01*
X165343797Y-93668433D01*
X165334951Y-93612580D01*
X165274658Y-93494249D01*
X165180751Y-93400342D01*
X165174092Y-93396949D01*
X165062423Y-93340050D01*
X165062420Y-93340049D01*
X165037876Y-93336161D01*
X164964249Y-93324500D01*
X164964246Y-93324500D01*
X164460754Y-93324500D01*
X164460751Y-93324500D01*
X164362580Y-93340049D01*
X164362576Y-93340050D01*
X164244250Y-93400341D01*
X164150341Y-93494250D01*
X164090050Y-93612576D01*
X164090049Y-93612580D01*
X164074500Y-93710751D01*
X164074500Y-94031397D01*
X164071127Y-94057020D01*
X164045499Y-94152664D01*
X164045499Y-94272338D01*
X164076472Y-94387929D01*
X164076474Y-94387933D01*
X164136306Y-94491565D01*
X164136311Y-94491572D01*
X164144445Y-94499706D01*
X164145308Y-94500716D01*
X164150340Y-94505748D01*
X164150342Y-94505751D01*
X164229005Y-94584414D01*
X164256781Y-94638929D01*
X164258000Y-94654416D01*
X164258000Y-95876232D01*
X164239093Y-95934423D01*
X164189593Y-95970387D01*
X164128407Y-95970387D01*
X164088996Y-95946236D01*
X163363692Y-95220932D01*
X163363691Y-95220930D01*
X163279070Y-95136309D01*
X163279067Y-95136307D01*
X162863692Y-94720932D01*
X162863691Y-94720930D01*
X162779070Y-94636309D01*
X162779067Y-94636307D01*
X162675434Y-94576474D01*
X162675429Y-94576472D01*
X162651003Y-94569926D01*
X162651003Y-94569927D01*
X162620613Y-94561784D01*
X162559836Y-94545499D01*
X162440164Y-94545499D01*
X162434101Y-94545499D01*
X162434085Y-94545500D01*
X162229268Y-94545500D01*
X162171077Y-94526593D01*
X162159264Y-94516504D01*
X162076192Y-94433432D01*
X162076191Y-94433430D01*
X161991570Y-94348809D01*
X161973351Y-94338290D01*
X161887934Y-94288974D01*
X161887927Y-94288971D01*
X161850971Y-94279069D01*
X161850970Y-94279069D01*
X161772338Y-94257999D01*
X161772336Y-94257999D01*
X161652664Y-94257999D01*
X161646601Y-94257999D01*
X161646585Y-94258000D01*
X160654416Y-94258000D01*
X160596225Y-94239093D01*
X160584418Y-94229009D01*
X160505751Y-94150342D01*
X160499092Y-94146949D01*
X160387423Y-94090050D01*
X160387420Y-94090049D01*
X160362876Y-94086161D01*
X160289249Y-94074500D01*
X160289246Y-94074500D01*
X159710754Y-94074500D01*
X159710751Y-94074500D01*
X159612580Y-94090049D01*
X159612576Y-94090050D01*
X159494249Y-94150342D01*
X159494247Y-94150343D01*
X159453086Y-94191504D01*
X159398569Y-94219281D01*
X159383083Y-94220500D01*
X157627900Y-94220500D01*
X157569709Y-94201593D01*
X157557897Y-94191504D01*
X157513343Y-94146951D01*
X157513342Y-94146950D01*
X157400304Y-94089354D01*
X157400305Y-94089354D01*
X157306522Y-94074500D01*
X156693479Y-94074500D01*
X156693476Y-94074501D01*
X156599700Y-94089352D01*
X156599695Y-94089354D01*
X156486659Y-94146949D01*
X156486658Y-94146949D01*
X156486658Y-94146950D01*
X156404602Y-94229005D01*
X156350088Y-94256781D01*
X156334601Y-94258000D01*
X154654416Y-94258000D01*
X154596225Y-94239093D01*
X154584418Y-94229009D01*
X154505751Y-94150342D01*
X154499092Y-94146949D01*
X154387423Y-94090050D01*
X154387420Y-94090049D01*
X154362876Y-94086161D01*
X154289249Y-94074500D01*
X154289246Y-94074500D01*
X153710754Y-94074500D01*
X153710751Y-94074500D01*
X153612580Y-94090049D01*
X153612576Y-94090050D01*
X153494250Y-94150341D01*
X153494249Y-94150341D01*
X153494249Y-94150342D01*
X153415585Y-94229005D01*
X153361071Y-94256781D01*
X153345584Y-94258000D01*
X153227664Y-94258000D01*
X153125719Y-94285315D01*
X153112065Y-94288974D01*
X153008430Y-94348808D01*
X152923811Y-94433426D01*
X152923807Y-94433432D01*
X152840737Y-94516503D01*
X152786221Y-94544281D01*
X152770733Y-94545500D01*
X152565915Y-94545500D01*
X152565899Y-94545499D01*
X152559836Y-94545499D01*
X152440164Y-94545499D01*
X152348997Y-94569927D01*
X152324569Y-94576473D01*
X152324568Y-94576473D01*
X152324566Y-94576474D01*
X152324565Y-94576474D01*
X152220930Y-94636308D01*
X152136308Y-94720929D01*
X152136309Y-94720930D01*
X152136307Y-94720932D01*
X151383833Y-95473407D01*
X150640736Y-96216504D01*
X150586219Y-96244281D01*
X150570732Y-96245500D01*
X149614500Y-96245500D01*
X149556309Y-96226593D01*
X149520345Y-96177093D01*
X149515500Y-96146500D01*
X149515500Y-95815253D01*
X149515498Y-95815241D01*
X149512711Y-95801231D01*
X149503867Y-95756769D01*
X149459552Y-95690448D01*
X149459548Y-95690445D01*
X149393233Y-95646134D01*
X149393231Y-95646133D01*
X149393228Y-95646132D01*
X149393227Y-95646132D01*
X149334758Y-95634501D01*
X149334748Y-95634500D01*
X147265252Y-95634500D01*
X147265251Y-95634500D01*
X147265241Y-95634501D01*
X147206772Y-95646132D01*
X147206766Y-95646134D01*
X147140451Y-95690445D01*
X147140445Y-95690451D01*
X147096134Y-95756766D01*
X147096132Y-95756772D01*
X147084501Y-95815241D01*
X147084500Y-95815253D01*
X147084500Y-97584746D01*
X147084501Y-97584758D01*
X147096132Y-97643227D01*
X147096134Y-97643233D01*
X147132168Y-97697161D01*
X147140448Y-97709552D01*
X147206769Y-97753867D01*
X147251231Y-97762711D01*
X147265241Y-97765498D01*
X147265246Y-97765498D01*
X147265252Y-97765500D01*
X147265253Y-97765500D01*
X147645750Y-97765500D01*
X147703941Y-97784407D01*
X147739905Y-97833907D01*
X147739905Y-97895093D01*
X147703941Y-97944593D01*
X147676342Y-97958655D01*
X147626023Y-97975004D01*
X147434586Y-98072545D01*
X147260763Y-98198835D01*
X147108835Y-98350763D01*
X146982545Y-98524586D01*
X146885005Y-98716021D01*
X146818609Y-98920366D01*
X146807580Y-98989999D01*
X144500500Y-98989999D01*
X144500500Y-92599500D01*
X144519407Y-92541309D01*
X144568907Y-92505345D01*
X144599500Y-92500500D01*
X170900500Y-92500500D01*
X170958691Y-92519407D01*
G37*
%TD.AperFunction*%
%TD*%
M02*
