%TF.GenerationSoftware,KiCad,Pcbnew,8.0.4-8.0.4-0~ubuntu20.04.1*%
%TF.CreationDate,2024-08-15T08:25:23-05:00*%
%TF.ProjectId,STImu,5354496d-752e-46b6-9963-61645f706362,rev?*%
%TF.SameCoordinates,Original*%
%TF.FileFunction,Legend,Bot*%
%TF.FilePolarity,Positive*%
%FSLAX46Y46*%
G04 Gerber Fmt 4.6, Leading zero omitted, Abs format (unit mm)*
G04 Created by KiCad (PCBNEW 8.0.4-8.0.4-0~ubuntu20.04.1) date 2024-08-15 08:25:23*
%MOMM*%
%LPD*%
G01*
G04 APERTURE LIST*
%ADD10C,0.150000*%
G04 APERTURE END LIST*
D10*
X163210839Y-94102312D02*
X163067982Y-94149931D01*
X163067982Y-94149931D02*
X162829887Y-94149931D01*
X162829887Y-94149931D02*
X162734649Y-94102312D01*
X162734649Y-94102312D02*
X162687030Y-94054692D01*
X162687030Y-94054692D02*
X162639411Y-93959454D01*
X162639411Y-93959454D02*
X162639411Y-93864216D01*
X162639411Y-93864216D02*
X162687030Y-93768978D01*
X162687030Y-93768978D02*
X162734649Y-93721359D01*
X162734649Y-93721359D02*
X162829887Y-93673740D01*
X162829887Y-93673740D02*
X163020363Y-93626121D01*
X163020363Y-93626121D02*
X163115601Y-93578502D01*
X163115601Y-93578502D02*
X163163220Y-93530883D01*
X163163220Y-93530883D02*
X163210839Y-93435645D01*
X163210839Y-93435645D02*
X163210839Y-93340407D01*
X163210839Y-93340407D02*
X163163220Y-93245169D01*
X163163220Y-93245169D02*
X163115601Y-93197550D01*
X163115601Y-93197550D02*
X163020363Y-93149931D01*
X163020363Y-93149931D02*
X162782268Y-93149931D01*
X162782268Y-93149931D02*
X162639411Y-93197550D01*
X162210839Y-94149931D02*
X162210839Y-93483264D01*
X162210839Y-93149931D02*
X162258458Y-93197550D01*
X162258458Y-93197550D02*
X162210839Y-93245169D01*
X162210839Y-93245169D02*
X162163220Y-93197550D01*
X162163220Y-93197550D02*
X162210839Y-93149931D01*
X162210839Y-93149931D02*
X162210839Y-93245169D01*
X161734649Y-94149931D02*
X161734649Y-93483264D01*
X161734649Y-93578502D02*
X161687030Y-93530883D01*
X161687030Y-93530883D02*
X161591792Y-93483264D01*
X161591792Y-93483264D02*
X161448935Y-93483264D01*
X161448935Y-93483264D02*
X161353697Y-93530883D01*
X161353697Y-93530883D02*
X161306078Y-93626121D01*
X161306078Y-93626121D02*
X161306078Y-94149931D01*
X161306078Y-93626121D02*
X161258459Y-93530883D01*
X161258459Y-93530883D02*
X161163221Y-93483264D01*
X161163221Y-93483264D02*
X161020364Y-93483264D01*
X161020364Y-93483264D02*
X160925125Y-93530883D01*
X160925125Y-93530883D02*
X160877506Y-93626121D01*
X160877506Y-93626121D02*
X160877506Y-94149931D01*
X160401316Y-93483264D02*
X160401316Y-94483264D01*
X160401316Y-93530883D02*
X160306078Y-93483264D01*
X160306078Y-93483264D02*
X160115602Y-93483264D01*
X160115602Y-93483264D02*
X160020364Y-93530883D01*
X160020364Y-93530883D02*
X159972745Y-93578502D01*
X159972745Y-93578502D02*
X159925126Y-93673740D01*
X159925126Y-93673740D02*
X159925126Y-93959454D01*
X159925126Y-93959454D02*
X159972745Y-94054692D01*
X159972745Y-94054692D02*
X160020364Y-94102312D01*
X160020364Y-94102312D02*
X160115602Y-94149931D01*
X160115602Y-94149931D02*
X160306078Y-94149931D01*
X160306078Y-94149931D02*
X160401316Y-94102312D01*
X159353697Y-94149931D02*
X159448935Y-94102312D01*
X159448935Y-94102312D02*
X159496554Y-94007073D01*
X159496554Y-94007073D02*
X159496554Y-93149931D01*
X158591792Y-94102312D02*
X158687030Y-94149931D01*
X158687030Y-94149931D02*
X158877506Y-94149931D01*
X158877506Y-94149931D02*
X158972744Y-94102312D01*
X158972744Y-94102312D02*
X159020363Y-94007073D01*
X159020363Y-94007073D02*
X159020363Y-93626121D01*
X159020363Y-93626121D02*
X158972744Y-93530883D01*
X158972744Y-93530883D02*
X158877506Y-93483264D01*
X158877506Y-93483264D02*
X158687030Y-93483264D01*
X158687030Y-93483264D02*
X158591792Y-93530883D01*
X158591792Y-93530883D02*
X158544173Y-93626121D01*
X158544173Y-93626121D02*
X158544173Y-93721359D01*
X158544173Y-93721359D02*
X159020363Y-93816597D01*
X158115601Y-94149931D02*
X158115601Y-93149931D01*
X157639411Y-94149931D02*
X157639411Y-93149931D01*
X157639411Y-93149931D02*
X157306078Y-93864216D01*
X157306078Y-93864216D02*
X156972745Y-93149931D01*
X156972745Y-93149931D02*
X156972745Y-94149931D01*
X156496554Y-93149931D02*
X156496554Y-93959454D01*
X156496554Y-93959454D02*
X156448935Y-94054692D01*
X156448935Y-94054692D02*
X156401316Y-94102312D01*
X156401316Y-94102312D02*
X156306078Y-94149931D01*
X156306078Y-94149931D02*
X156115602Y-94149931D01*
X156115602Y-94149931D02*
X156020364Y-94102312D01*
X156020364Y-94102312D02*
X155972745Y-94054692D01*
X155972745Y-94054692D02*
X155925126Y-93959454D01*
X155925126Y-93959454D02*
X155925126Y-93149931D01*
X154115602Y-94149931D02*
X154448935Y-93673740D01*
X154687030Y-94149931D02*
X154687030Y-93149931D01*
X154687030Y-93149931D02*
X154306078Y-93149931D01*
X154306078Y-93149931D02*
X154210840Y-93197550D01*
X154210840Y-93197550D02*
X154163221Y-93245169D01*
X154163221Y-93245169D02*
X154115602Y-93340407D01*
X154115602Y-93340407D02*
X154115602Y-93483264D01*
X154115602Y-93483264D02*
X154163221Y-93578502D01*
X154163221Y-93578502D02*
X154210840Y-93626121D01*
X154210840Y-93626121D02*
X154306078Y-93673740D01*
X154306078Y-93673740D02*
X154687030Y-93673740D01*
X153306078Y-94102312D02*
X153401316Y-94149931D01*
X153401316Y-94149931D02*
X153591792Y-94149931D01*
X153591792Y-94149931D02*
X153687030Y-94102312D01*
X153687030Y-94102312D02*
X153734649Y-94007073D01*
X153734649Y-94007073D02*
X153734649Y-93626121D01*
X153734649Y-93626121D02*
X153687030Y-93530883D01*
X153687030Y-93530883D02*
X153591792Y-93483264D01*
X153591792Y-93483264D02*
X153401316Y-93483264D01*
X153401316Y-93483264D02*
X153306078Y-93530883D01*
X153306078Y-93530883D02*
X153258459Y-93626121D01*
X153258459Y-93626121D02*
X153258459Y-93721359D01*
X153258459Y-93721359D02*
X153734649Y-93816597D01*
X152925125Y-93483264D02*
X152687030Y-94149931D01*
X152687030Y-94149931D02*
X152448935Y-93483264D01*
X150782268Y-94149931D02*
X151353696Y-94149931D01*
X151067982Y-94149931D02*
X151067982Y-93149931D01*
X151067982Y-93149931D02*
X151163220Y-93292788D01*
X151163220Y-93292788D02*
X151258458Y-93388026D01*
X151258458Y-93388026D02*
X151353696Y-93435645D01*
X162591792Y-95664636D02*
X162639411Y-95712256D01*
X162639411Y-95712256D02*
X162782268Y-95759875D01*
X162782268Y-95759875D02*
X162877506Y-95759875D01*
X162877506Y-95759875D02*
X163020363Y-95712256D01*
X163020363Y-95712256D02*
X163115601Y-95617017D01*
X163115601Y-95617017D02*
X163163220Y-95521779D01*
X163163220Y-95521779D02*
X163210839Y-95331303D01*
X163210839Y-95331303D02*
X163210839Y-95188446D01*
X163210839Y-95188446D02*
X163163220Y-94997970D01*
X163163220Y-94997970D02*
X163115601Y-94902732D01*
X163115601Y-94902732D02*
X163020363Y-94807494D01*
X163020363Y-94807494D02*
X162877506Y-94759875D01*
X162877506Y-94759875D02*
X162782268Y-94759875D01*
X162782268Y-94759875D02*
X162639411Y-94807494D01*
X162639411Y-94807494D02*
X162591792Y-94855113D01*
X162020363Y-95759875D02*
X162115601Y-95712256D01*
X162115601Y-95712256D02*
X162163220Y-95664636D01*
X162163220Y-95664636D02*
X162210839Y-95569398D01*
X162210839Y-95569398D02*
X162210839Y-95283684D01*
X162210839Y-95283684D02*
X162163220Y-95188446D01*
X162163220Y-95188446D02*
X162115601Y-95140827D01*
X162115601Y-95140827D02*
X162020363Y-95093208D01*
X162020363Y-95093208D02*
X161877506Y-95093208D01*
X161877506Y-95093208D02*
X161782268Y-95140827D01*
X161782268Y-95140827D02*
X161734649Y-95188446D01*
X161734649Y-95188446D02*
X161687030Y-95283684D01*
X161687030Y-95283684D02*
X161687030Y-95569398D01*
X161687030Y-95569398D02*
X161734649Y-95664636D01*
X161734649Y-95664636D02*
X161782268Y-95712256D01*
X161782268Y-95712256D02*
X161877506Y-95759875D01*
X161877506Y-95759875D02*
X162020363Y-95759875D01*
X161258458Y-95093208D02*
X161258458Y-96093208D01*
X161258458Y-95140827D02*
X161163220Y-95093208D01*
X161163220Y-95093208D02*
X160972744Y-95093208D01*
X160972744Y-95093208D02*
X160877506Y-95140827D01*
X160877506Y-95140827D02*
X160829887Y-95188446D01*
X160829887Y-95188446D02*
X160782268Y-95283684D01*
X160782268Y-95283684D02*
X160782268Y-95569398D01*
X160782268Y-95569398D02*
X160829887Y-95664636D01*
X160829887Y-95664636D02*
X160877506Y-95712256D01*
X160877506Y-95712256D02*
X160972744Y-95759875D01*
X160972744Y-95759875D02*
X161163220Y-95759875D01*
X161163220Y-95759875D02*
X161258458Y-95712256D01*
X160448934Y-95093208D02*
X160210839Y-95759875D01*
X159972744Y-95093208D02*
X160210839Y-95759875D01*
X160210839Y-95759875D02*
X160306077Y-95997970D01*
X160306077Y-95997970D02*
X160353696Y-96045589D01*
X160353696Y-96045589D02*
X160448934Y-96093208D01*
X159591791Y-95759875D02*
X159591791Y-95093208D01*
X159591791Y-95283684D02*
X159544172Y-95188446D01*
X159544172Y-95188446D02*
X159496553Y-95140827D01*
X159496553Y-95140827D02*
X159401315Y-95093208D01*
X159401315Y-95093208D02*
X159306077Y-95093208D01*
X158972743Y-95759875D02*
X158972743Y-95093208D01*
X158972743Y-94759875D02*
X159020362Y-94807494D01*
X159020362Y-94807494D02*
X158972743Y-94855113D01*
X158972743Y-94855113D02*
X158925124Y-94807494D01*
X158925124Y-94807494D02*
X158972743Y-94759875D01*
X158972743Y-94759875D02*
X158972743Y-94855113D01*
X158067982Y-95093208D02*
X158067982Y-95902732D01*
X158067982Y-95902732D02*
X158115601Y-95997970D01*
X158115601Y-95997970D02*
X158163220Y-96045589D01*
X158163220Y-96045589D02*
X158258458Y-96093208D01*
X158258458Y-96093208D02*
X158401315Y-96093208D01*
X158401315Y-96093208D02*
X158496553Y-96045589D01*
X158067982Y-95712256D02*
X158163220Y-95759875D01*
X158163220Y-95759875D02*
X158353696Y-95759875D01*
X158353696Y-95759875D02*
X158448934Y-95712256D01*
X158448934Y-95712256D02*
X158496553Y-95664636D01*
X158496553Y-95664636D02*
X158544172Y-95569398D01*
X158544172Y-95569398D02*
X158544172Y-95283684D01*
X158544172Y-95283684D02*
X158496553Y-95188446D01*
X158496553Y-95188446D02*
X158448934Y-95140827D01*
X158448934Y-95140827D02*
X158353696Y-95093208D01*
X158353696Y-95093208D02*
X158163220Y-95093208D01*
X158163220Y-95093208D02*
X158067982Y-95140827D01*
X157591791Y-95759875D02*
X157591791Y-94759875D01*
X157163220Y-95759875D02*
X157163220Y-95236065D01*
X157163220Y-95236065D02*
X157210839Y-95140827D01*
X157210839Y-95140827D02*
X157306077Y-95093208D01*
X157306077Y-95093208D02*
X157448934Y-95093208D01*
X157448934Y-95093208D02*
X157544172Y-95140827D01*
X157544172Y-95140827D02*
X157591791Y-95188446D01*
X156829886Y-95093208D02*
X156448934Y-95093208D01*
X156687029Y-94759875D02*
X156687029Y-95617017D01*
X156687029Y-95617017D02*
X156639410Y-95712256D01*
X156639410Y-95712256D02*
X156544172Y-95759875D01*
X156544172Y-95759875D02*
X156448934Y-95759875D01*
X155401314Y-94855113D02*
X155353695Y-94807494D01*
X155353695Y-94807494D02*
X155258457Y-94759875D01*
X155258457Y-94759875D02*
X155020362Y-94759875D01*
X155020362Y-94759875D02*
X154925124Y-94807494D01*
X154925124Y-94807494D02*
X154877505Y-94855113D01*
X154877505Y-94855113D02*
X154829886Y-94950351D01*
X154829886Y-94950351D02*
X154829886Y-95045589D01*
X154829886Y-95045589D02*
X154877505Y-95188446D01*
X154877505Y-95188446D02*
X155448933Y-95759875D01*
X155448933Y-95759875D02*
X154829886Y-95759875D01*
X154210838Y-94759875D02*
X154115600Y-94759875D01*
X154115600Y-94759875D02*
X154020362Y-94807494D01*
X154020362Y-94807494D02*
X153972743Y-94855113D01*
X153972743Y-94855113D02*
X153925124Y-94950351D01*
X153925124Y-94950351D02*
X153877505Y-95140827D01*
X153877505Y-95140827D02*
X153877505Y-95378922D01*
X153877505Y-95378922D02*
X153925124Y-95569398D01*
X153925124Y-95569398D02*
X153972743Y-95664636D01*
X153972743Y-95664636D02*
X154020362Y-95712256D01*
X154020362Y-95712256D02*
X154115600Y-95759875D01*
X154115600Y-95759875D02*
X154210838Y-95759875D01*
X154210838Y-95759875D02*
X154306076Y-95712256D01*
X154306076Y-95712256D02*
X154353695Y-95664636D01*
X154353695Y-95664636D02*
X154401314Y-95569398D01*
X154401314Y-95569398D02*
X154448933Y-95378922D01*
X154448933Y-95378922D02*
X154448933Y-95140827D01*
X154448933Y-95140827D02*
X154401314Y-94950351D01*
X154401314Y-94950351D02*
X154353695Y-94855113D01*
X154353695Y-94855113D02*
X154306076Y-94807494D01*
X154306076Y-94807494D02*
X154210838Y-94759875D01*
X153496552Y-94855113D02*
X153448933Y-94807494D01*
X153448933Y-94807494D02*
X153353695Y-94759875D01*
X153353695Y-94759875D02*
X153115600Y-94759875D01*
X153115600Y-94759875D02*
X153020362Y-94807494D01*
X153020362Y-94807494D02*
X152972743Y-94855113D01*
X152972743Y-94855113D02*
X152925124Y-94950351D01*
X152925124Y-94950351D02*
X152925124Y-95045589D01*
X152925124Y-95045589D02*
X152972743Y-95188446D01*
X152972743Y-95188446D02*
X153544171Y-95759875D01*
X153544171Y-95759875D02*
X152925124Y-95759875D01*
X152067981Y-95093208D02*
X152067981Y-95759875D01*
X152306076Y-94712256D02*
X152544171Y-95426541D01*
X152544171Y-95426541D02*
X151925124Y-95426541D01*
X163163220Y-97369819D02*
X163163220Y-96369819D01*
X163163220Y-96369819D02*
X162591792Y-97369819D01*
X162591792Y-97369819D02*
X162591792Y-96369819D01*
X162115601Y-97369819D02*
X162115601Y-96703152D01*
X162115601Y-96369819D02*
X162163220Y-96417438D01*
X162163220Y-96417438D02*
X162115601Y-96465057D01*
X162115601Y-96465057D02*
X162067982Y-96417438D01*
X162067982Y-96417438D02*
X162115601Y-96369819D01*
X162115601Y-96369819D02*
X162115601Y-96465057D01*
X161210840Y-97322200D02*
X161306078Y-97369819D01*
X161306078Y-97369819D02*
X161496554Y-97369819D01*
X161496554Y-97369819D02*
X161591792Y-97322200D01*
X161591792Y-97322200D02*
X161639411Y-97274580D01*
X161639411Y-97274580D02*
X161687030Y-97179342D01*
X161687030Y-97179342D02*
X161687030Y-96893628D01*
X161687030Y-96893628D02*
X161639411Y-96798390D01*
X161639411Y-96798390D02*
X161591792Y-96750771D01*
X161591792Y-96750771D02*
X161496554Y-96703152D01*
X161496554Y-96703152D02*
X161306078Y-96703152D01*
X161306078Y-96703152D02*
X161210840Y-96750771D01*
X160782268Y-97369819D02*
X160782268Y-96369819D01*
X160687030Y-96988866D02*
X160401316Y-97369819D01*
X160401316Y-96703152D02*
X160782268Y-97084104D01*
X158877506Y-96846009D02*
X158734649Y-96893628D01*
X158734649Y-96893628D02*
X158687030Y-96941247D01*
X158687030Y-96941247D02*
X158639411Y-97036485D01*
X158639411Y-97036485D02*
X158639411Y-97179342D01*
X158639411Y-97179342D02*
X158687030Y-97274580D01*
X158687030Y-97274580D02*
X158734649Y-97322200D01*
X158734649Y-97322200D02*
X158829887Y-97369819D01*
X158829887Y-97369819D02*
X159210839Y-97369819D01*
X159210839Y-97369819D02*
X159210839Y-96369819D01*
X159210839Y-96369819D02*
X158877506Y-96369819D01*
X158877506Y-96369819D02*
X158782268Y-96417438D01*
X158782268Y-96417438D02*
X158734649Y-96465057D01*
X158734649Y-96465057D02*
X158687030Y-96560295D01*
X158687030Y-96560295D02*
X158687030Y-96655533D01*
X158687030Y-96655533D02*
X158734649Y-96750771D01*
X158734649Y-96750771D02*
X158782268Y-96798390D01*
X158782268Y-96798390D02*
X158877506Y-96846009D01*
X158877506Y-96846009D02*
X159210839Y-96846009D01*
X157782268Y-96703152D02*
X157782268Y-97369819D01*
X158210839Y-96703152D02*
X158210839Y-97226961D01*
X158210839Y-97226961D02*
X158163220Y-97322200D01*
X158163220Y-97322200D02*
X158067982Y-97369819D01*
X158067982Y-97369819D02*
X157925125Y-97369819D01*
X157925125Y-97369819D02*
X157829887Y-97322200D01*
X157829887Y-97322200D02*
X157782268Y-97274580D01*
X157448934Y-96703152D02*
X157067982Y-96703152D01*
X157306077Y-96369819D02*
X157306077Y-97226961D01*
X157306077Y-97226961D02*
X157258458Y-97322200D01*
X157258458Y-97322200D02*
X157163220Y-97369819D01*
X157163220Y-97369819D02*
X157067982Y-97369819D01*
X156877505Y-96703152D02*
X156496553Y-96703152D01*
X156734648Y-96369819D02*
X156734648Y-97226961D01*
X156734648Y-97226961D02*
X156687029Y-97322200D01*
X156687029Y-97322200D02*
X156591791Y-97369819D01*
X156591791Y-97369819D02*
X156496553Y-97369819D01*
X156210838Y-97322200D02*
X156115600Y-97369819D01*
X156115600Y-97369819D02*
X155925124Y-97369819D01*
X155925124Y-97369819D02*
X155829886Y-97322200D01*
X155829886Y-97322200D02*
X155782267Y-97226961D01*
X155782267Y-97226961D02*
X155782267Y-97179342D01*
X155782267Y-97179342D02*
X155829886Y-97084104D01*
X155829886Y-97084104D02*
X155925124Y-97036485D01*
X155925124Y-97036485D02*
X156067981Y-97036485D01*
X156067981Y-97036485D02*
X156163219Y-96988866D01*
X156163219Y-96988866D02*
X156210838Y-96893628D01*
X156210838Y-96893628D02*
X156210838Y-96846009D01*
X156210838Y-96846009D02*
X156163219Y-96750771D01*
X156163219Y-96750771D02*
X156067981Y-96703152D01*
X156067981Y-96703152D02*
X155925124Y-96703152D01*
X155925124Y-96703152D02*
X155829886Y-96750771D01*
M02*
